<mxfile host="app.diagrams.net" modified="2023-08-16T09:06:15.669Z" agent="Mozilla/5.0 (Windows NT 10.0; Win64; x64) AppleWebKit/537.36 (KHTML, like Gecko) Chrome/115.0.0.0 Safari/537.36" etag="fejPD4ntqQS46oz6SEe7" version="21.6.8" type="device">
  <diagram name="Page-1" id="c7558073-3199-34d8-9f00-42111426c3f3">
    <mxGraphModel dx="1450" dy="709" grid="0" gridSize="10" guides="1" tooltips="1" connect="1" arrows="1" fold="1" page="0" pageScale="1" pageWidth="826" pageHeight="1169" background="#000000" math="0" shadow="0">
      <root>
        <mxCell id="0" />
        <mxCell id="1" parent="0" />
        <mxCell id="zuThM4p5iZYRd_PsobGT-1" value="" style="rounded=0;whiteSpace=wrap;html=1;fillColor=#000000;" vertex="1" parent="1">
          <mxGeometry x="-274" y="267" width="1014" height="3992" as="geometry" />
        </mxCell>
        <mxCell id="W5b2b0fnDkwv19PqNxUL-104" value="" style="group" parent="1" vertex="1" connectable="0">
          <mxGeometry x="460" y="320" width="160" height="60" as="geometry" />
        </mxCell>
        <mxCell id="W5b2b0fnDkwv19PqNxUL-97" value="&lt;font color=&quot;#ffffff&quot;&gt;accountStaff&lt;/font&gt;" style="rounded=0;whiteSpace=wrap;html=1;fillColor=#693F01;gradientColor=none;strokeColor=#FFFFFF;" parent="W5b2b0fnDkwv19PqNxUL-104" vertex="1">
          <mxGeometry x="40" width="120" height="60" as="geometry" />
        </mxCell>
        <mxCell id="W5b2b0fnDkwv19PqNxUL-98" value="&lt;font color=&quot;#ffffff&quot;&gt;D&lt;/font&gt;" style="rounded=0;whiteSpace=wrap;html=1;fillColor=#4D4D4D;strokeColor=#FFFFFF;" parent="W5b2b0fnDkwv19PqNxUL-104" vertex="1">
          <mxGeometry width="40" height="60" as="geometry" />
        </mxCell>
        <mxCell id="W5b2b0fnDkwv19PqNxUL-107" value="" style="group" parent="1" vertex="1" connectable="0">
          <mxGeometry x="120" y="290" width="210" height="120" as="geometry" />
        </mxCell>
        <mxCell id="W5b2b0fnDkwv19PqNxUL-101" value="" style="rounded=1;whiteSpace=wrap;html=1;fillColor=#693F01;strokeColor=#FFFFFF;" parent="W5b2b0fnDkwv19PqNxUL-107" vertex="1">
          <mxGeometry width="210" height="120" as="geometry" />
        </mxCell>
        <mxCell id="W5b2b0fnDkwv19PqNxUL-103" value="&lt;font color=&quot;#ffffff&quot;&gt;Login&lt;/font&gt;" style="rounded=0;whiteSpace=wrap;html=1;fillColor=#000000;strokeColor=#FFFFFF;" parent="W5b2b0fnDkwv19PqNxUL-107" vertex="1">
          <mxGeometry y="25.71428571428571" width="210" height="68.57142857142857" as="geometry" />
        </mxCell>
        <mxCell id="W5b2b0fnDkwv19PqNxUL-105" value="" style="endArrow=none;html=1;rounded=0;strokeColor=#FFFFFF;" parent="W5b2b0fnDkwv19PqNxUL-107" edge="1">
          <mxGeometry width="50" height="50" relative="1" as="geometry">
            <mxPoint x="33.6" y="25.71428571428571" as="sourcePoint" />
            <mxPoint x="33.6" as="targetPoint" />
          </mxGeometry>
        </mxCell>
        <mxCell id="W5b2b0fnDkwv19PqNxUL-106" value="&lt;font color=&quot;#ffffff&quot;&gt;1&lt;/font&gt;" style="rounded=0;whiteSpace=wrap;html=1;fillColor=none;strokeColor=none;" parent="W5b2b0fnDkwv19PqNxUL-107" vertex="1">
          <mxGeometry x="8.4" y="8.571428571428571" width="25.2" height="17.142857142857142" as="geometry" />
        </mxCell>
        <mxCell id="W5b2b0fnDkwv19PqNxUL-108" value="&lt;font color=&quot;#ffffff&quot;&gt;Staff&lt;/font&gt;" style="rounded=0;whiteSpace=wrap;html=1;fillColor=#693F01;strokeColor=#FFFFFF;" parent="1" vertex="1">
          <mxGeometry x="-160" y="317.5" width="150" height="65" as="geometry" />
        </mxCell>
        <mxCell id="0qaDB-c1ABUbavJTGYAx-1" value="" style="endArrow=classic;html=1;rounded=0;entryX=0;entryY=0.5;entryDx=0;entryDy=0;exitX=1;exitY=0.5;exitDx=0;exitDy=0;strokeColor=#FFFFFF;" parent="1" source="W5b2b0fnDkwv19PqNxUL-108" target="W5b2b0fnDkwv19PqNxUL-103" edge="1">
          <mxGeometry width="50" height="50" relative="1" as="geometry">
            <mxPoint y="480" as="sourcePoint" />
            <mxPoint x="50" y="430" as="targetPoint" />
          </mxGeometry>
        </mxCell>
        <mxCell id="0qaDB-c1ABUbavJTGYAx-2" value="" style="endArrow=classic;html=1;rounded=0;fontColor=#FFFFFF;strokeColor=#FFFFFF;" parent="1" source="W5b2b0fnDkwv19PqNxUL-103" target="W5b2b0fnDkwv19PqNxUL-98" edge="1">
          <mxGeometry width="50" height="50" relative="1" as="geometry">
            <mxPoint x="370" y="349.75" as="sourcePoint" />
            <mxPoint x="510" y="350" as="targetPoint" />
          </mxGeometry>
        </mxCell>
        <mxCell id="0qaDB-c1ABUbavJTGYAx-3" value="Enter account information" style="text;html=1;strokeColor=none;fillColor=none;align=center;verticalAlign=middle;whiteSpace=wrap;rounded=0;fontColor=#FFFFFF;" parent="1" vertex="1">
          <mxGeometry x="-10" y="317.5" width="130" height="30" as="geometry" />
        </mxCell>
        <mxCell id="0qaDB-c1ABUbavJTGYAx-4" value="Verify account" style="text;html=1;strokeColor=none;fillColor=none;align=center;verticalAlign=middle;whiteSpace=wrap;rounded=0;fontColor=#FFFFFF;" parent="1" vertex="1">
          <mxGeometry x="353" y="320" width="87" height="30" as="geometry" />
        </mxCell>
        <mxCell id="0qaDB-c1ABUbavJTGYAx-9" value="" style="group" parent="1" vertex="1" connectable="0">
          <mxGeometry x="125" y="575" width="210" height="120" as="geometry" />
        </mxCell>
        <mxCell id="0qaDB-c1ABUbavJTGYAx-10" value="" style="rounded=1;whiteSpace=wrap;html=1;fillColor=#693F01;strokeColor=#FFFFFF;" parent="0qaDB-c1ABUbavJTGYAx-9" vertex="1">
          <mxGeometry width="210" height="120" as="geometry" />
        </mxCell>
        <mxCell id="0qaDB-c1ABUbavJTGYAx-11" value="&lt;font color=&quot;#ffffff&quot;&gt;Edit Account&lt;/font&gt;" style="rounded=0;whiteSpace=wrap;html=1;fillColor=#000000;strokeColor=#FFFFFF;" parent="0qaDB-c1ABUbavJTGYAx-9" vertex="1">
          <mxGeometry y="25.71428571428571" width="210" height="68.57142857142857" as="geometry" />
        </mxCell>
        <mxCell id="0qaDB-c1ABUbavJTGYAx-12" value="" style="endArrow=none;html=1;rounded=0;strokeColor=#FFFFFF;" parent="0qaDB-c1ABUbavJTGYAx-9" edge="1">
          <mxGeometry width="50" height="50" relative="1" as="geometry">
            <mxPoint x="33.6" y="25.71428571428571" as="sourcePoint" />
            <mxPoint x="33.6" as="targetPoint" />
          </mxGeometry>
        </mxCell>
        <mxCell id="0qaDB-c1ABUbavJTGYAx-13" value="&lt;font color=&quot;#ffffff&quot;&gt;3&lt;/font&gt;" style="rounded=0;whiteSpace=wrap;html=1;fillColor=none;strokeColor=none;" parent="0qaDB-c1ABUbavJTGYAx-9" vertex="1">
          <mxGeometry x="8.4" y="8.571428571428571" width="25.2" height="17.142857142857142" as="geometry" />
        </mxCell>
        <mxCell id="0qaDB-c1ABUbavJTGYAx-15" value="" style="endArrow=classic;html=1;rounded=0;entryX=0;entryY=0.5;entryDx=0;entryDy=0;strokeColor=#FFFFFF;" parent="1" source="0qaDB-c1ABUbavJTGYAx-32" target="0qaDB-c1ABUbavJTGYAx-11" edge="1">
          <mxGeometry width="50" height="50" relative="1" as="geometry">
            <mxPoint x="-84.25490196078431" y="538" as="sourcePoint" />
            <mxPoint x="55" y="715" as="targetPoint" />
            <Array as="points">
              <mxPoint x="-85" y="636" />
            </Array>
          </mxGeometry>
        </mxCell>
        <mxCell id="0qaDB-c1ABUbavJTGYAx-16" value="" style="endArrow=classic;html=1;rounded=0;fontColor=#FFFFFF;strokeColor=#FFFFFF;entryX=0.5;entryY=1;entryDx=0;entryDy=0;exitX=1;exitY=0.5;exitDx=0;exitDy=0;" parent="1" source="0qaDB-c1ABUbavJTGYAx-11" target="W5b2b0fnDkwv19PqNxUL-97" edge="1">
          <mxGeometry width="50" height="50" relative="1" as="geometry">
            <mxPoint x="375" y="541.75" as="sourcePoint" />
            <mxPoint x="465" y="542" as="targetPoint" />
            <Array as="points">
              <mxPoint x="560" y="635" />
            </Array>
          </mxGeometry>
        </mxCell>
        <mxCell id="0qaDB-c1ABUbavJTGYAx-17" value="Edit account information" style="text;html=1;strokeColor=none;fillColor=none;align=center;verticalAlign=middle;whiteSpace=wrap;rounded=0;fontColor=#FFFFFF;" parent="1" vertex="1">
          <mxGeometry x="-39" y="609" width="159" height="30" as="geometry" />
        </mxCell>
        <mxCell id="0qaDB-c1ABUbavJTGYAx-20" value="" style="endArrow=classic;html=1;rounded=0;strokeColor=#FFFFFF;" parent="1" source="0qaDB-c1ABUbavJTGYAx-32" target="0qaDB-c1ABUbavJTGYAx-26" edge="1">
          <mxGeometry width="50" height="50" relative="1" as="geometry">
            <mxPoint x="-84" y="538" as="sourcePoint" />
            <mxPoint x="125" y="810.6666666666667" as="targetPoint" />
            <Array as="points">
              <mxPoint x="-85" y="810" />
            </Array>
          </mxGeometry>
        </mxCell>
        <mxCell id="0qaDB-c1ABUbavJTGYAx-21" value="" style="group" parent="1" vertex="1" connectable="0">
          <mxGeometry x="464" y="780" width="160" height="60" as="geometry" />
        </mxCell>
        <mxCell id="0qaDB-c1ABUbavJTGYAx-22" value="&lt;font color=&quot;#ffffff&quot;&gt;resultStudent&lt;/font&gt;" style="rounded=0;whiteSpace=wrap;html=1;fillColor=#693F01;gradientColor=none;strokeColor=#FFFFFF;" parent="0qaDB-c1ABUbavJTGYAx-21" vertex="1">
          <mxGeometry x="40" width="120" height="60" as="geometry" />
        </mxCell>
        <mxCell id="0qaDB-c1ABUbavJTGYAx-23" value="&lt;font color=&quot;#ffffff&quot;&gt;D&lt;/font&gt;" style="rounded=0;whiteSpace=wrap;html=1;fillColor=#4D4D4D;strokeColor=#FFFFFF;" parent="0qaDB-c1ABUbavJTGYAx-21" vertex="1">
          <mxGeometry width="40" height="60" as="geometry" />
        </mxCell>
        <mxCell id="0qaDB-c1ABUbavJTGYAx-24" value="" style="group" parent="1" vertex="1" connectable="0">
          <mxGeometry x="124" y="750" width="210" height="120" as="geometry" />
        </mxCell>
        <mxCell id="0qaDB-c1ABUbavJTGYAx-25" value="" style="rounded=1;whiteSpace=wrap;html=1;fillColor=#693F01;strokeColor=#FFFFFF;" parent="0qaDB-c1ABUbavJTGYAx-24" vertex="1">
          <mxGeometry width="210" height="120" as="geometry" />
        </mxCell>
        <mxCell id="0qaDB-c1ABUbavJTGYAx-26" value="&lt;font color=&quot;#ffffff&quot;&gt;Input Result&lt;/font&gt;" style="rounded=0;whiteSpace=wrap;html=1;fillColor=#000000;strokeColor=#FFFFFF;" parent="0qaDB-c1ABUbavJTGYAx-24" vertex="1">
          <mxGeometry y="25.71428571428571" width="210" height="68.57142857142857" as="geometry" />
        </mxCell>
        <mxCell id="0qaDB-c1ABUbavJTGYAx-27" value="" style="endArrow=none;html=1;rounded=0;strokeColor=#FFFFFF;" parent="0qaDB-c1ABUbavJTGYAx-24" edge="1">
          <mxGeometry width="50" height="50" relative="1" as="geometry">
            <mxPoint x="33.6" y="25.71428571428571" as="sourcePoint" />
            <mxPoint x="33.6" as="targetPoint" />
          </mxGeometry>
        </mxCell>
        <mxCell id="0qaDB-c1ABUbavJTGYAx-28" value="&lt;font color=&quot;#ffffff&quot;&gt;4&lt;/font&gt;" style="rounded=0;whiteSpace=wrap;html=1;fillColor=none;strokeColor=none;" parent="0qaDB-c1ABUbavJTGYAx-24" vertex="1">
          <mxGeometry x="8.4" y="8.571428571428571" width="25.2" height="17.142857142857142" as="geometry" />
        </mxCell>
        <mxCell id="0qaDB-c1ABUbavJTGYAx-29" value="" style="endArrow=classic;html=1;rounded=0;fontColor=#FFFFFF;strokeColor=#FFFFFF;" parent="1" source="0qaDB-c1ABUbavJTGYAx-26" target="0qaDB-c1ABUbavJTGYAx-23" edge="1">
          <mxGeometry width="50" height="50" relative="1" as="geometry">
            <mxPoint x="374" y="809.75" as="sourcePoint" />
            <mxPoint x="514" y="810" as="targetPoint" />
          </mxGeometry>
        </mxCell>
        <mxCell id="0qaDB-c1ABUbavJTGYAx-30" value="update result" style="text;html=1;strokeColor=none;fillColor=none;align=center;verticalAlign=middle;whiteSpace=wrap;rounded=0;fontColor=#FFFFFF;" parent="1" vertex="1">
          <mxGeometry x="328" y="784" width="130" height="26" as="geometry" />
        </mxCell>
        <mxCell id="0qaDB-c1ABUbavJTGYAx-31" value="result each student" style="text;html=1;strokeColor=none;fillColor=none;align=center;verticalAlign=middle;whiteSpace=wrap;rounded=0;fontColor=#FFFFFF;" parent="1" vertex="1">
          <mxGeometry x="-5" y="786" width="130" height="24" as="geometry" />
        </mxCell>
        <mxCell id="0qaDB-c1ABUbavJTGYAx-32" value="&lt;font color=&quot;#ffffff&quot;&gt;Staff Client&lt;/font&gt;" style="rounded=0;whiteSpace=wrap;html=1;fillColor=#693F01;strokeColor=#FFFFFF;" parent="1" vertex="1">
          <mxGeometry x="-160" y="459.5" width="150" height="65" as="geometry" />
        </mxCell>
        <mxCell id="0qaDB-c1ABUbavJTGYAx-34" value="" style="endArrow=classic;html=1;rounded=0;strokeColor=#FFFFFF;exitX=0.25;exitY=1;exitDx=0;exitDy=0;entryX=1;entryY=0.5;entryDx=0;entryDy=0;" parent="1" source="W5b2b0fnDkwv19PqNxUL-97" target="0qaDB-c1ABUbavJTGYAx-55" edge="1">
          <mxGeometry width="50" height="50" relative="1" as="geometry">
            <mxPoint x="47" y="382.5" as="sourcePoint" />
            <mxPoint x="326" y="441" as="targetPoint" />
            <Array as="points">
              <mxPoint x="530" y="492" />
            </Array>
          </mxGeometry>
        </mxCell>
        <mxCell id="0qaDB-c1ABUbavJTGYAx-37" value="" style="group" parent="1" vertex="1" connectable="0">
          <mxGeometry x="461" y="1086" width="160" height="60" as="geometry" />
        </mxCell>
        <mxCell id="0qaDB-c1ABUbavJTGYAx-38" value="&lt;font color=&quot;#ffffff&quot;&gt;Payment&lt;/font&gt;" style="rounded=0;whiteSpace=wrap;html=1;fillColor=#693F01;gradientColor=none;strokeColor=#FFFFFF;" parent="0qaDB-c1ABUbavJTGYAx-37" vertex="1">
          <mxGeometry x="40" width="120" height="60" as="geometry" />
        </mxCell>
        <mxCell id="0qaDB-c1ABUbavJTGYAx-39" value="&lt;font color=&quot;#ffffff&quot;&gt;D&lt;/font&gt;" style="rounded=0;whiteSpace=wrap;html=1;fillColor=#4D4D4D;strokeColor=#FFFFFF;" parent="0qaDB-c1ABUbavJTGYAx-37" vertex="1">
          <mxGeometry width="40" height="60" as="geometry" />
        </mxCell>
        <mxCell id="0qaDB-c1ABUbavJTGYAx-40" value="" style="group" parent="1" vertex="1" connectable="0">
          <mxGeometry x="121" y="1056" width="210" height="120" as="geometry" />
        </mxCell>
        <mxCell id="0qaDB-c1ABUbavJTGYAx-41" value="" style="rounded=1;whiteSpace=wrap;html=1;fillColor=#693F01;strokeColor=#FFFFFF;" parent="0qaDB-c1ABUbavJTGYAx-40" vertex="1">
          <mxGeometry width="210" height="120" as="geometry" />
        </mxCell>
        <mxCell id="0qaDB-c1ABUbavJTGYAx-42" value="&lt;font color=&quot;#ffffff&quot;&gt;Student Payment&lt;/font&gt;" style="rounded=0;whiteSpace=wrap;html=1;fillColor=#000000;strokeColor=#FFFFFF;" parent="0qaDB-c1ABUbavJTGYAx-40" vertex="1">
          <mxGeometry y="25.71428571428571" width="210" height="68.57142857142857" as="geometry" />
        </mxCell>
        <mxCell id="0qaDB-c1ABUbavJTGYAx-43" value="" style="endArrow=none;html=1;rounded=0;strokeColor=#FFFFFF;" parent="0qaDB-c1ABUbavJTGYAx-40" edge="1">
          <mxGeometry width="50" height="50" relative="1" as="geometry">
            <mxPoint x="33.6" y="25.71428571428571" as="sourcePoint" />
            <mxPoint x="33.6" as="targetPoint" />
          </mxGeometry>
        </mxCell>
        <mxCell id="0qaDB-c1ABUbavJTGYAx-44" value="&lt;font color=&quot;#ffffff&quot;&gt;6&lt;/font&gt;" style="rounded=0;whiteSpace=wrap;html=1;fillColor=none;strokeColor=none;" parent="0qaDB-c1ABUbavJTGYAx-40" vertex="1">
          <mxGeometry x="8.4" y="8.571428571428571" width="25.2" height="17.142857142857142" as="geometry" />
        </mxCell>
        <mxCell id="0qaDB-c1ABUbavJTGYAx-45" value="" style="endArrow=classic;html=1;rounded=0;fontColor=#FFFFFF;strokeColor=#FFFFFF;" parent="1" source="0qaDB-c1ABUbavJTGYAx-42" target="0qaDB-c1ABUbavJTGYAx-39" edge="1">
          <mxGeometry width="50" height="50" relative="1" as="geometry">
            <mxPoint x="371" y="1115.75" as="sourcePoint" />
            <mxPoint x="511" y="1116" as="targetPoint" />
          </mxGeometry>
        </mxCell>
        <mxCell id="0qaDB-c1ABUbavJTGYAx-46" value="update payment status" style="text;html=1;strokeColor=none;fillColor=none;align=center;verticalAlign=middle;whiteSpace=wrap;rounded=0;fontColor=#FFFFFF;" parent="1" vertex="1">
          <mxGeometry x="331" y="1086" width="130" height="30" as="geometry" />
        </mxCell>
        <mxCell id="0qaDB-c1ABUbavJTGYAx-47" value="" style="endArrow=classic;html=1;rounded=0;strokeColor=#FFFFFF;" parent="1" source="0qaDB-c1ABUbavJTGYAx-32" target="0qaDB-c1ABUbavJTGYAx-42" edge="1">
          <mxGeometry width="50" height="50" relative="1" as="geometry">
            <mxPoint x="-85" y="721" as="sourcePoint" />
            <mxPoint x="124" y="974" as="targetPoint" />
            <Array as="points">
              <mxPoint x="-85" y="1116" />
            </Array>
          </mxGeometry>
        </mxCell>
        <mxCell id="0qaDB-c1ABUbavJTGYAx-53" value="" style="group" parent="1" vertex="1" connectable="0">
          <mxGeometry x="118" y="432" width="210" height="120" as="geometry" />
        </mxCell>
        <mxCell id="0qaDB-c1ABUbavJTGYAx-54" value="" style="rounded=1;whiteSpace=wrap;html=1;fillColor=#693F01;strokeColor=#FFFFFF;" parent="0qaDB-c1ABUbavJTGYAx-53" vertex="1">
          <mxGeometry width="210" height="120" as="geometry" />
        </mxCell>
        <mxCell id="0qaDB-c1ABUbavJTGYAx-55" value="&lt;font color=&quot;#ffffff&quot;&gt;Login Success&lt;/font&gt;" style="rounded=0;whiteSpace=wrap;html=1;fillColor=#000000;strokeColor=#FFFFFF;" parent="0qaDB-c1ABUbavJTGYAx-53" vertex="1">
          <mxGeometry y="25.71428571428571" width="210" height="68.57142857142857" as="geometry" />
        </mxCell>
        <mxCell id="0qaDB-c1ABUbavJTGYAx-56" value="" style="endArrow=none;html=1;rounded=0;strokeColor=#FFFFFF;" parent="0qaDB-c1ABUbavJTGYAx-53" edge="1">
          <mxGeometry width="50" height="50" relative="1" as="geometry">
            <mxPoint x="33.6" y="25.71428571428571" as="sourcePoint" />
            <mxPoint x="33.6" as="targetPoint" />
          </mxGeometry>
        </mxCell>
        <mxCell id="0qaDB-c1ABUbavJTGYAx-57" value="&lt;font color=&quot;#ffffff&quot;&gt;2&lt;/font&gt;" style="rounded=0;whiteSpace=wrap;html=1;fillColor=none;strokeColor=none;" parent="0qaDB-c1ABUbavJTGYAx-53" vertex="1">
          <mxGeometry x="8.4" y="8.571428571428571" width="25.2" height="17.142857142857142" as="geometry" />
        </mxCell>
        <mxCell id="0qaDB-c1ABUbavJTGYAx-58" value="" style="endArrow=classic;html=1;rounded=0;strokeColor=#FFFFFF;exitX=0;exitY=0.5;exitDx=0;exitDy=0;" parent="1" source="0qaDB-c1ABUbavJTGYAx-55" target="0qaDB-c1ABUbavJTGYAx-32" edge="1">
          <mxGeometry width="50" height="50" relative="1" as="geometry">
            <mxPoint x="82" y="409" as="sourcePoint" />
            <mxPoint x="-10" y="492" as="targetPoint" />
            <Array as="points" />
          </mxGeometry>
        </mxCell>
        <mxCell id="0qaDB-c1ABUbavJTGYAx-60" value="verify authority" style="text;html=1;strokeColor=none;fillColor=none;align=center;verticalAlign=middle;whiteSpace=wrap;rounded=0;fontColor=#FFFFFF;" parent="1" vertex="1">
          <mxGeometry x="353" y="464" width="130" height="30" as="geometry" />
        </mxCell>
        <mxCell id="0qaDB-c1ABUbavJTGYAx-62" value="account details" style="text;html=1;strokeColor=none;fillColor=none;align=center;verticalAlign=middle;whiteSpace=wrap;rounded=0;fontColor=#FFFFFF;" parent="1" vertex="1">
          <mxGeometry x="-10" y="467" width="130" height="24" as="geometry" />
        </mxCell>
        <mxCell id="0qaDB-c1ABUbavJTGYAx-63" value="Update account data" style="text;html=1;strokeColor=none;fillColor=none;align=center;verticalAlign=middle;whiteSpace=wrap;rounded=0;fontColor=#FFFFFF;" parent="1" vertex="1">
          <mxGeometry x="346" y="604" width="130" height="30" as="geometry" />
        </mxCell>
        <mxCell id="0qaDB-c1ABUbavJTGYAx-64" value="check student payment" style="text;html=1;strokeColor=none;fillColor=none;align=center;verticalAlign=middle;whiteSpace=wrap;rounded=0;fontColor=#FFFFFF;" parent="1" vertex="1">
          <mxGeometry x="-22" y="1092" width="130" height="24" as="geometry" />
        </mxCell>
        <mxCell id="0qaDB-c1ABUbavJTGYAx-69" value="" style="endArrow=classic;html=1;rounded=0;strokeColor=#FFFFFF;exitX=0.5;exitY=1;exitDx=0;exitDy=0;" parent="1" source="0qaDB-c1ABUbavJTGYAx-32" target="0qaDB-c1ABUbavJTGYAx-80" edge="1">
          <mxGeometry width="50" height="50" relative="1" as="geometry">
            <mxPoint x="-91" y="681" as="sourcePoint" />
            <mxPoint x="118" y="1130" as="targetPoint" />
            <Array as="points">
              <mxPoint x="-85" y="1268" />
            </Array>
          </mxGeometry>
        </mxCell>
        <mxCell id="0qaDB-c1ABUbavJTGYAx-75" value="" style="group" parent="1" vertex="1" connectable="0">
          <mxGeometry x="464" y="1238" width="160" height="60" as="geometry" />
        </mxCell>
        <mxCell id="0qaDB-c1ABUbavJTGYAx-76" value="&lt;font color=&quot;#ffffff&quot;&gt;borrowList&lt;/font&gt;" style="rounded=0;whiteSpace=wrap;html=1;fillColor=#693F01;gradientColor=none;strokeColor=#FFFFFF;" parent="0qaDB-c1ABUbavJTGYAx-75" vertex="1">
          <mxGeometry x="40" width="120" height="60" as="geometry" />
        </mxCell>
        <mxCell id="0qaDB-c1ABUbavJTGYAx-77" value="&lt;font color=&quot;#ffffff&quot;&gt;D&lt;/font&gt;" style="rounded=0;whiteSpace=wrap;html=1;fillColor=#4D4D4D;strokeColor=#FFFFFF;" parent="0qaDB-c1ABUbavJTGYAx-75" vertex="1">
          <mxGeometry width="40" height="60" as="geometry" />
        </mxCell>
        <mxCell id="0qaDB-c1ABUbavJTGYAx-78" value="" style="group" parent="1" vertex="1" connectable="0">
          <mxGeometry x="124" y="1208" width="210" height="120" as="geometry" />
        </mxCell>
        <mxCell id="0qaDB-c1ABUbavJTGYAx-79" value="" style="rounded=1;whiteSpace=wrap;html=1;fillColor=#693F01;strokeColor=#FFFFFF;" parent="0qaDB-c1ABUbavJTGYAx-78" vertex="1">
          <mxGeometry width="210" height="120" as="geometry" />
        </mxCell>
        <mxCell id="0qaDB-c1ABUbavJTGYAx-80" value="&lt;font color=&quot;#ffffff&quot;&gt;Check borrow date&lt;/font&gt;" style="rounded=0;whiteSpace=wrap;html=1;fillColor=#000000;strokeColor=#FFFFFF;" parent="0qaDB-c1ABUbavJTGYAx-78" vertex="1">
          <mxGeometry y="25.71428571428571" width="210" height="68.57142857142857" as="geometry" />
        </mxCell>
        <mxCell id="0qaDB-c1ABUbavJTGYAx-81" value="" style="endArrow=none;html=1;rounded=0;strokeColor=#FFFFFF;" parent="0qaDB-c1ABUbavJTGYAx-78" edge="1">
          <mxGeometry width="50" height="50" relative="1" as="geometry">
            <mxPoint x="33.6" y="25.71428571428571" as="sourcePoint" />
            <mxPoint x="33.6" as="targetPoint" />
          </mxGeometry>
        </mxCell>
        <mxCell id="0qaDB-c1ABUbavJTGYAx-82" value="&lt;font color=&quot;#ffffff&quot;&gt;7&lt;/font&gt;" style="rounded=0;whiteSpace=wrap;html=1;fillColor=none;strokeColor=none;" parent="0qaDB-c1ABUbavJTGYAx-78" vertex="1">
          <mxGeometry x="8.4" y="8.571428571428571" width="25.2" height="17.142857142857142" as="geometry" />
        </mxCell>
        <mxCell id="0qaDB-c1ABUbavJTGYAx-83" value="" style="endArrow=classic;html=1;rounded=0;fontColor=#FFFFFF;strokeColor=#FFFFFF;" parent="1" source="0qaDB-c1ABUbavJTGYAx-80" target="0qaDB-c1ABUbavJTGYAx-77" edge="1">
          <mxGeometry width="50" height="50" relative="1" as="geometry">
            <mxPoint x="374" y="1267.75" as="sourcePoint" />
            <mxPoint x="514" y="1268" as="targetPoint" />
          </mxGeometry>
        </mxCell>
        <mxCell id="0qaDB-c1ABUbavJTGYAx-86" value="select borrowList" style="text;html=1;strokeColor=none;fillColor=none;align=center;verticalAlign=middle;whiteSpace=wrap;rounded=0;fontColor=#FFFFFF;" parent="1" vertex="1">
          <mxGeometry x="334" y="1244" width="130" height="24" as="geometry" />
        </mxCell>
        <mxCell id="0qaDB-c1ABUbavJTGYAx-95" value="" style="endArrow=classic;html=1;rounded=0;fontColor=#FFFFFF;strokeColor=#FFFFFF;entryX=1;entryY=0.5;entryDx=0;entryDy=0;exitX=0.5;exitY=1;exitDx=0;exitDy=0;" parent="1" source="0qaDB-c1ABUbavJTGYAx-76" edge="1">
          <mxGeometry width="50" height="50" relative="1" as="geometry">
            <mxPoint x="337" y="1351" as="sourcePoint" />
            <mxPoint x="333" y="1424" as="targetPoint" />
            <Array as="points">
              <mxPoint x="564" y="1424" />
            </Array>
          </mxGeometry>
        </mxCell>
        <mxCell id="XVeD69qzHMJXPrRZZLE7-1" value="check student borrow date" style="text;html=1;strokeColor=none;fillColor=none;align=center;verticalAlign=middle;whiteSpace=wrap;rounded=0;fontColor=#FFFFFF;" parent="1" vertex="1">
          <mxGeometry x="-47" y="1244" width="155" height="24" as="geometry" />
        </mxCell>
        <mxCell id="ozppCbCyK6Lj_qtel31T-2" value="" style="group" parent="1" vertex="1" connectable="0">
          <mxGeometry x="124" y="893" width="210" height="120" as="geometry" />
        </mxCell>
        <mxCell id="ozppCbCyK6Lj_qtel31T-3" value="" style="rounded=1;whiteSpace=wrap;html=1;fillColor=#693F01;strokeColor=#FFFFFF;" parent="ozppCbCyK6Lj_qtel31T-2" vertex="1">
          <mxGeometry width="210" height="120" as="geometry" />
        </mxCell>
        <mxCell id="ozppCbCyK6Lj_qtel31T-4" value="&lt;font color=&quot;#ffffff&quot;&gt;Check Result&lt;/font&gt;" style="rounded=0;whiteSpace=wrap;html=1;fillColor=#000000;strokeColor=#FFFFFF;" parent="ozppCbCyK6Lj_qtel31T-2" vertex="1">
          <mxGeometry y="25.71428571428571" width="210" height="68.57142857142857" as="geometry" />
        </mxCell>
        <mxCell id="ozppCbCyK6Lj_qtel31T-5" value="" style="endArrow=none;html=1;rounded=0;strokeColor=#FFFFFF;" parent="ozppCbCyK6Lj_qtel31T-2" edge="1">
          <mxGeometry width="50" height="50" relative="1" as="geometry">
            <mxPoint x="33.6" y="25.71428571428571" as="sourcePoint" />
            <mxPoint x="33.6" as="targetPoint" />
          </mxGeometry>
        </mxCell>
        <mxCell id="ozppCbCyK6Lj_qtel31T-6" value="&lt;font color=&quot;#ffffff&quot;&gt;5&lt;/font&gt;" style="rounded=0;whiteSpace=wrap;html=1;fillColor=none;strokeColor=none;" parent="ozppCbCyK6Lj_qtel31T-2" vertex="1">
          <mxGeometry x="8.4" y="8.571428571428571" width="25.2" height="17.142857142857142" as="geometry" />
        </mxCell>
        <mxCell id="ozppCbCyK6Lj_qtel31T-7" value="" style="endArrow=classic;html=1;rounded=0;strokeColor=#FFFFFF;" parent="1" edge="1">
          <mxGeometry width="50" height="50" relative="1" as="geometry">
            <mxPoint x="-85" y="671" as="sourcePoint" />
            <mxPoint x="124" y="956" as="targetPoint" />
            <Array as="points">
              <mxPoint x="-85" y="956" />
            </Array>
          </mxGeometry>
        </mxCell>
        <mxCell id="ozppCbCyK6Lj_qtel31T-8" value="Select student" style="text;html=1;strokeColor=none;fillColor=none;align=center;verticalAlign=middle;whiteSpace=wrap;rounded=0;fontColor=#FFFFFF;" parent="1" vertex="1">
          <mxGeometry x="-29" y="929" width="130" height="24" as="geometry" />
        </mxCell>
        <mxCell id="ozppCbCyK6Lj_qtel31T-10" value="" style="endArrow=classic;html=1;rounded=0;strokeColor=#FFFFFF;exitX=1;exitY=0.5;exitDx=0;exitDy=0;" parent="1" source="ozppCbCyK6Lj_qtel31T-4" edge="1">
          <mxGeometry width="50" height="50" relative="1" as="geometry">
            <mxPoint x="480" y="755" as="sourcePoint" />
            <mxPoint x="561" y="842" as="targetPoint" />
            <Array as="points">
              <mxPoint x="561" y="953" />
            </Array>
          </mxGeometry>
        </mxCell>
        <mxCell id="ozppCbCyK6Lj_qtel31T-11" value="Select student" style="text;html=1;strokeColor=none;fillColor=none;align=center;verticalAlign=middle;whiteSpace=wrap;rounded=0;fontColor=#FFFFFF;" parent="1" vertex="1">
          <mxGeometry x="356" y="924" width="130" height="26" as="geometry" />
        </mxCell>
        <mxCell id="ozppCbCyK6Lj_qtel31T-12" value="" style="endArrow=classic;html=1;rounded=0;strokeColor=#FFFFFF;exitX=0.5;exitY=1;exitDx=0;exitDy=0;entryX=0;entryY=0.5;entryDx=0;entryDy=0;" parent="1" target="ozppCbCyK6Lj_qtel31T-15" edge="1">
          <mxGeometry width="50" height="50" relative="1" as="geometry">
            <mxPoint x="-85" y="909" as="sourcePoint" />
            <mxPoint x="124" y="1652" as="targetPoint" />
            <Array as="points">
              <mxPoint x="-85" y="1572" />
            </Array>
          </mxGeometry>
        </mxCell>
        <mxCell id="ozppCbCyK6Lj_qtel31T-13" value="" style="group" parent="1" vertex="1" connectable="0">
          <mxGeometry x="125" y="1512" width="210" height="120" as="geometry" />
        </mxCell>
        <mxCell id="ozppCbCyK6Lj_qtel31T-14" value="" style="rounded=1;whiteSpace=wrap;html=1;fillColor=#693F01;strokeColor=#FFFFFF;" parent="ozppCbCyK6Lj_qtel31T-13" vertex="1">
          <mxGeometry width="210" height="120" as="geometry" />
        </mxCell>
        <mxCell id="ozppCbCyK6Lj_qtel31T-15" value="&lt;font color=&quot;#ffffff&quot;&gt;Student discipline record&lt;/font&gt;" style="rounded=0;whiteSpace=wrap;html=1;fillColor=#000000;strokeColor=#FFFFFF;" parent="ozppCbCyK6Lj_qtel31T-13" vertex="1">
          <mxGeometry y="25.71428571428571" width="210" height="68.57142857142857" as="geometry" />
        </mxCell>
        <mxCell id="ozppCbCyK6Lj_qtel31T-16" value="" style="endArrow=none;html=1;rounded=0;strokeColor=#FFFFFF;" parent="ozppCbCyK6Lj_qtel31T-13" edge="1">
          <mxGeometry width="50" height="50" relative="1" as="geometry">
            <mxPoint x="33.6" y="25.71428571428571" as="sourcePoint" />
            <mxPoint x="33.6" as="targetPoint" />
          </mxGeometry>
        </mxCell>
        <mxCell id="ozppCbCyK6Lj_qtel31T-17" value="&lt;font color=&quot;#ffffff&quot;&gt;9&lt;/font&gt;" style="rounded=0;whiteSpace=wrap;html=1;fillColor=none;strokeColor=none;" parent="ozppCbCyK6Lj_qtel31T-13" vertex="1">
          <mxGeometry x="8.4" y="8.571428571428571" width="25.2" height="17.142857142857142" as="geometry" />
        </mxCell>
        <mxCell id="ozppCbCyK6Lj_qtel31T-19" value="Insert student&lt;br&gt;&amp;nbsp;discipline record" style="text;html=1;strokeColor=none;fillColor=none;align=center;verticalAlign=middle;whiteSpace=wrap;rounded=0;fontColor=#FFFFFF;" parent="1" vertex="1">
          <mxGeometry x="-22" y="1542" width="130" height="24" as="geometry" />
        </mxCell>
        <mxCell id="ozppCbCyK6Lj_qtel31T-20" value="" style="group" parent="1" vertex="1" connectable="0">
          <mxGeometry x="469" y="1542" width="183" height="60" as="geometry" />
        </mxCell>
        <mxCell id="ozppCbCyK6Lj_qtel31T-21" value="&lt;font color=&quot;#ffffff&quot;&gt;studentDisciplineRecord&lt;/font&gt;" style="rounded=0;whiteSpace=wrap;html=1;fillColor=#693F01;gradientColor=none;strokeColor=#FFFFFF;" parent="ozppCbCyK6Lj_qtel31T-20" vertex="1">
          <mxGeometry x="45.75" width="137.25" height="60" as="geometry" />
        </mxCell>
        <mxCell id="ozppCbCyK6Lj_qtel31T-22" value="&lt;font color=&quot;#ffffff&quot;&gt;D&lt;/font&gt;" style="rounded=0;whiteSpace=wrap;html=1;fillColor=#4D4D4D;strokeColor=#FFFFFF;" parent="ozppCbCyK6Lj_qtel31T-20" vertex="1">
          <mxGeometry width="45.75" height="60" as="geometry" />
        </mxCell>
        <mxCell id="ozppCbCyK6Lj_qtel31T-23" value="" style="endArrow=classic;html=1;rounded=0;fontColor=#FFFFFF;strokeColor=#FFFFFF;exitX=1;exitY=0.5;exitDx=0;exitDy=0;entryX=0;entryY=0.5;entryDx=0;entryDy=0;" parent="1" source="ozppCbCyK6Lj_qtel31T-15" target="ozppCbCyK6Lj_qtel31T-22" edge="1">
          <mxGeometry width="50" height="50" relative="1" as="geometry">
            <mxPoint x="380" y="1529" as="sourcePoint" />
            <mxPoint x="450" y="1588" as="targetPoint" />
            <Array as="points" />
          </mxGeometry>
        </mxCell>
        <mxCell id="ozppCbCyK6Lj_qtel31T-24" value="Insert student&lt;br&gt;&amp;nbsp;discipline record" style="text;html=1;strokeColor=none;fillColor=none;align=center;verticalAlign=middle;whiteSpace=wrap;rounded=0;fontColor=#FFFFFF;" parent="1" vertex="1">
          <mxGeometry x="331.5" y="1545" width="130" height="24" as="geometry" />
        </mxCell>
        <mxCell id="ozppCbCyK6Lj_qtel31T-25" value="" style="group" parent="1" vertex="1" connectable="0">
          <mxGeometry x="125" y="1690" width="210" height="120" as="geometry" />
        </mxCell>
        <mxCell id="ozppCbCyK6Lj_qtel31T-26" value="" style="rounded=1;whiteSpace=wrap;html=1;fillColor=#693F01;strokeColor=#FFFFFF;" parent="ozppCbCyK6Lj_qtel31T-25" vertex="1">
          <mxGeometry width="210" height="120" as="geometry" />
        </mxCell>
        <mxCell id="ozppCbCyK6Lj_qtel31T-27" value="&lt;font color=&quot;#ffffff&quot;&gt;Add teacher evaluation&lt;/font&gt;" style="rounded=0;whiteSpace=wrap;html=1;fillColor=#000000;strokeColor=#FFFFFF;" parent="ozppCbCyK6Lj_qtel31T-25" vertex="1">
          <mxGeometry y="25.71428571428571" width="210" height="68.57142857142857" as="geometry" />
        </mxCell>
        <mxCell id="ozppCbCyK6Lj_qtel31T-28" value="" style="endArrow=none;html=1;rounded=0;strokeColor=#FFFFFF;" parent="ozppCbCyK6Lj_qtel31T-25" edge="1">
          <mxGeometry width="50" height="50" relative="1" as="geometry">
            <mxPoint x="33.6" y="25.71428571428571" as="sourcePoint" />
            <mxPoint x="33.6" as="targetPoint" />
          </mxGeometry>
        </mxCell>
        <mxCell id="ozppCbCyK6Lj_qtel31T-29" value="&lt;font color=&quot;#ffffff&quot;&gt;10&lt;/font&gt;" style="rounded=0;whiteSpace=wrap;html=1;fillColor=none;strokeColor=none;" parent="ozppCbCyK6Lj_qtel31T-25" vertex="1">
          <mxGeometry x="8.4" y="8.571428571428571" width="25.2" height="17.142857142857142" as="geometry" />
        </mxCell>
        <mxCell id="ozppCbCyK6Lj_qtel31T-30" value="" style="group" parent="1" vertex="1" connectable="0">
          <mxGeometry x="469" y="1720" width="160" height="60" as="geometry" />
        </mxCell>
        <mxCell id="ozppCbCyK6Lj_qtel31T-31" value="&lt;font color=&quot;#ffffff&quot;&gt;teacherEvaluation&lt;/font&gt;" style="rounded=0;whiteSpace=wrap;html=1;fillColor=#693F01;gradientColor=none;strokeColor=#FFFFFF;" parent="ozppCbCyK6Lj_qtel31T-30" vertex="1">
          <mxGeometry x="40" width="120" height="60" as="geometry" />
        </mxCell>
        <mxCell id="ozppCbCyK6Lj_qtel31T-32" value="&lt;font color=&quot;#ffffff&quot;&gt;D&lt;/font&gt;" style="rounded=0;whiteSpace=wrap;html=1;fillColor=#4D4D4D;strokeColor=#FFFFFF;" parent="ozppCbCyK6Lj_qtel31T-30" vertex="1">
          <mxGeometry width="40" height="60" as="geometry" />
        </mxCell>
        <mxCell id="ozppCbCyK6Lj_qtel31T-33" value="" style="endArrow=classic;html=1;rounded=0;fontColor=#FFFFFF;strokeColor=#FFFFFF;exitX=1;exitY=0.5;exitDx=0;exitDy=0;entryX=0;entryY=0.5;entryDx=0;entryDy=0;" parent="1" source="ozppCbCyK6Lj_qtel31T-27" target="ozppCbCyK6Lj_qtel31T-32" edge="1">
          <mxGeometry width="50" height="50" relative="1" as="geometry">
            <mxPoint x="380" y="1707" as="sourcePoint" />
            <mxPoint x="450" y="1766" as="targetPoint" />
            <Array as="points" />
          </mxGeometry>
        </mxCell>
        <mxCell id="ozppCbCyK6Lj_qtel31T-34" value="Insert result teacher" style="text;html=1;strokeColor=none;fillColor=none;align=center;verticalAlign=middle;whiteSpace=wrap;rounded=0;fontColor=#FFFFFF;" parent="1" vertex="1">
          <mxGeometry x="330" y="1731" width="130" height="24" as="geometry" />
        </mxCell>
        <mxCell id="ozppCbCyK6Lj_qtel31T-35" value="Insert result teacher" style="text;html=1;strokeColor=none;fillColor=none;align=center;verticalAlign=middle;whiteSpace=wrap;rounded=0;fontColor=#FFFFFF;" parent="1" vertex="1">
          <mxGeometry x="-18" y="1731" width="130" height="24" as="geometry" />
        </mxCell>
        <mxCell id="ozppCbCyK6Lj_qtel31T-36" value="" style="endArrow=classic;html=1;rounded=0;strokeColor=#FFFFFF;" parent="1" edge="1">
          <mxGeometry width="50" height="50" relative="1" as="geometry">
            <mxPoint x="-85" y="1569" as="sourcePoint" />
            <mxPoint x="124" y="1752" as="targetPoint" />
            <Array as="points">
              <mxPoint x="-85" y="1752" />
            </Array>
          </mxGeometry>
        </mxCell>
        <mxCell id="ozppCbCyK6Lj_qtel31T-38" value="" style="group" parent="1" vertex="1" connectable="0">
          <mxGeometry x="125" y="1864" width="210" height="120" as="geometry" />
        </mxCell>
        <mxCell id="ozppCbCyK6Lj_qtel31T-39" value="" style="rounded=1;whiteSpace=wrap;html=1;fillColor=#693F01;strokeColor=#FFFFFF;" parent="ozppCbCyK6Lj_qtel31T-38" vertex="1">
          <mxGeometry width="210" height="120" as="geometry" />
        </mxCell>
        <mxCell id="ozppCbCyK6Lj_qtel31T-40" value="&lt;font color=&quot;#ffffff&quot;&gt;Information School Third Parties&lt;/font&gt;" style="rounded=0;whiteSpace=wrap;html=1;fillColor=#000000;strokeColor=#FFFFFF;" parent="ozppCbCyK6Lj_qtel31T-38" vertex="1">
          <mxGeometry y="25.71428571428571" width="210" height="68.57142857142857" as="geometry" />
        </mxCell>
        <mxCell id="ozppCbCyK6Lj_qtel31T-41" value="" style="endArrow=none;html=1;rounded=0;strokeColor=#FFFFFF;" parent="ozppCbCyK6Lj_qtel31T-38" edge="1">
          <mxGeometry width="50" height="50" relative="1" as="geometry">
            <mxPoint x="33.6" y="25.71428571428571" as="sourcePoint" />
            <mxPoint x="33.6" as="targetPoint" />
          </mxGeometry>
        </mxCell>
        <mxCell id="ozppCbCyK6Lj_qtel31T-42" value="&lt;font color=&quot;#ffffff&quot;&gt;11&lt;/font&gt;" style="rounded=0;whiteSpace=wrap;html=1;fillColor=none;strokeColor=none;" parent="ozppCbCyK6Lj_qtel31T-38" vertex="1">
          <mxGeometry x="8.4" y="8.571428571428571" width="25.2" height="17.142857142857142" as="geometry" />
        </mxCell>
        <mxCell id="ozppCbCyK6Lj_qtel31T-43" value="" style="group" parent="1" vertex="1" connectable="0">
          <mxGeometry x="469" y="1894" width="160" height="60" as="geometry" />
        </mxCell>
        <mxCell id="ozppCbCyK6Lj_qtel31T-44" value="&lt;font color=&quot;#ffffff&quot;&gt;schoolThirdParties&lt;/font&gt;" style="rounded=0;whiteSpace=wrap;html=1;fillColor=#693F01;gradientColor=none;strokeColor=#FFFFFF;" parent="ozppCbCyK6Lj_qtel31T-43" vertex="1">
          <mxGeometry x="40" width="120" height="60" as="geometry" />
        </mxCell>
        <mxCell id="ozppCbCyK6Lj_qtel31T-45" value="&lt;font color=&quot;#ffffff&quot;&gt;D&lt;/font&gt;" style="rounded=0;whiteSpace=wrap;html=1;fillColor=#4D4D4D;strokeColor=#FFFFFF;" parent="ozppCbCyK6Lj_qtel31T-43" vertex="1">
          <mxGeometry width="40" height="60" as="geometry" />
        </mxCell>
        <mxCell id="ozppCbCyK6Lj_qtel31T-46" value="" style="endArrow=classic;html=1;rounded=0;fontColor=#FFFFFF;strokeColor=#FFFFFF;exitX=1;exitY=0.5;exitDx=0;exitDy=0;entryX=0;entryY=0.5;entryDx=0;entryDy=0;" parent="1" source="ozppCbCyK6Lj_qtel31T-40" target="ozppCbCyK6Lj_qtel31T-45" edge="1">
          <mxGeometry width="50" height="50" relative="1" as="geometry">
            <mxPoint x="380" y="1881" as="sourcePoint" />
            <mxPoint x="450" y="1940" as="targetPoint" />
            <Array as="points" />
          </mxGeometry>
        </mxCell>
        <mxCell id="ozppCbCyK6Lj_qtel31T-47" value="Insert information" style="text;html=1;strokeColor=none;fillColor=none;align=center;verticalAlign=middle;whiteSpace=wrap;rounded=0;fontColor=#FFFFFF;" parent="1" vertex="1">
          <mxGeometry x="330" y="1905" width="130" height="24" as="geometry" />
        </mxCell>
        <mxCell id="ozppCbCyK6Lj_qtel31T-48" value="Insert data" style="text;html=1;strokeColor=none;fillColor=none;align=center;verticalAlign=middle;whiteSpace=wrap;rounded=0;fontColor=#FFFFFF;" parent="1" vertex="1">
          <mxGeometry x="-22" y="1905" width="130" height="24" as="geometry" />
        </mxCell>
        <mxCell id="ozppCbCyK6Lj_qtel31T-49" value="" style="endArrow=classic;html=1;rounded=0;strokeColor=#FFFFFF;" parent="1" edge="1">
          <mxGeometry width="50" height="50" relative="1" as="geometry">
            <mxPoint x="-85" y="1743" as="sourcePoint" />
            <mxPoint x="124" y="1926" as="targetPoint" />
            <Array as="points">
              <mxPoint x="-85" y="1926" />
            </Array>
          </mxGeometry>
        </mxCell>
        <mxCell id="L_dloqxEIiIwebqbIpQP-2" value="" style="group" parent="1" vertex="1" connectable="0">
          <mxGeometry x="125" y="2039" width="210" height="120" as="geometry" />
        </mxCell>
        <mxCell id="L_dloqxEIiIwebqbIpQP-3" value="" style="rounded=1;whiteSpace=wrap;html=1;fillColor=#693F01;strokeColor=#FFFFFF;" parent="L_dloqxEIiIwebqbIpQP-2" vertex="1">
          <mxGeometry width="210" height="120" as="geometry" />
        </mxCell>
        <mxCell id="L_dloqxEIiIwebqbIpQP-4" value="&lt;font color=&quot;#ffffff&quot;&gt;Insert account&lt;/font&gt;" style="rounded=0;whiteSpace=wrap;html=1;fillColor=#000000;strokeColor=#FFFFFF;" parent="L_dloqxEIiIwebqbIpQP-2" vertex="1">
          <mxGeometry y="25.71428571428571" width="210" height="68.57142857142857" as="geometry" />
        </mxCell>
        <mxCell id="L_dloqxEIiIwebqbIpQP-5" value="" style="endArrow=none;html=1;rounded=0;strokeColor=#FFFFFF;" parent="L_dloqxEIiIwebqbIpQP-2" edge="1">
          <mxGeometry width="50" height="50" relative="1" as="geometry">
            <mxPoint x="33.6" y="25.71428571428571" as="sourcePoint" />
            <mxPoint x="33.6" as="targetPoint" />
          </mxGeometry>
        </mxCell>
        <mxCell id="L_dloqxEIiIwebqbIpQP-6" value="&lt;font color=&quot;#ffffff&quot;&gt;13&lt;/font&gt;" style="rounded=0;whiteSpace=wrap;html=1;fillColor=none;strokeColor=none;" parent="L_dloqxEIiIwebqbIpQP-2" vertex="1">
          <mxGeometry x="8.4" y="8.571428571428571" width="25.2" height="17.142857142857142" as="geometry" />
        </mxCell>
        <mxCell id="L_dloqxEIiIwebqbIpQP-7" value="" style="group" parent="1" vertex="1" connectable="0">
          <mxGeometry x="477" y="2190" width="160" height="60" as="geometry" />
        </mxCell>
        <mxCell id="L_dloqxEIiIwebqbIpQP-8" value="&lt;font color=&quot;#ffffff&quot;&gt;schoolAccount&lt;/font&gt;" style="rounded=0;whiteSpace=wrap;html=1;fillColor=#693F01;gradientColor=none;strokeColor=#FFFFFF;" parent="L_dloqxEIiIwebqbIpQP-7" vertex="1">
          <mxGeometry x="40" width="120" height="60" as="geometry" />
        </mxCell>
        <mxCell id="L_dloqxEIiIwebqbIpQP-9" value="&lt;font color=&quot;#ffffff&quot;&gt;D&lt;/font&gt;" style="rounded=0;whiteSpace=wrap;html=1;fillColor=#4D4D4D;strokeColor=#FFFFFF;" parent="L_dloqxEIiIwebqbIpQP-7" vertex="1">
          <mxGeometry width="40" height="60" as="geometry" />
        </mxCell>
        <mxCell id="L_dloqxEIiIwebqbIpQP-10" value="" style="endArrow=classic;html=1;rounded=0;fontColor=#FFFFFF;strokeColor=#FFFFFF;exitX=1;exitY=0.75;exitDx=0;exitDy=0;entryX=0;entryY=0.5;entryDx=0;entryDy=0;" parent="1" source="L_dloqxEIiIwebqbIpQP-3" target="L_dloqxEIiIwebqbIpQP-9" edge="1">
          <mxGeometry width="50" height="50" relative="1" as="geometry">
            <mxPoint x="380" y="2056" as="sourcePoint" />
            <mxPoint x="450" y="2115" as="targetPoint" />
            <Array as="points" />
          </mxGeometry>
        </mxCell>
        <mxCell id="khXXdSDkWywSzuok3T_t-10" value="&lt;font color=&quot;#ffffff&quot;&gt;&lt;span style=&quot;background-color: rgb(0, 0, 0);&quot;&gt;Update Data&lt;/span&gt;&lt;/font&gt;" style="edgeLabel;html=1;align=center;verticalAlign=middle;resizable=0;points=[];" parent="L_dloqxEIiIwebqbIpQP-10" vertex="1" connectable="0">
          <mxGeometry x="0.0952" y="2" relative="1" as="geometry">
            <mxPoint as="offset" />
          </mxGeometry>
        </mxCell>
        <mxCell id="L_dloqxEIiIwebqbIpQP-12" value="Insert account" style="text;html=1;strokeColor=none;fillColor=none;align=center;verticalAlign=middle;whiteSpace=wrap;rounded=0;fontColor=#FFFFFF;" parent="1" vertex="1">
          <mxGeometry x="-22" y="2080" width="130" height="24" as="geometry" />
        </mxCell>
        <mxCell id="L_dloqxEIiIwebqbIpQP-13" value="" style="endArrow=classic;html=1;rounded=0;strokeColor=#FFFFFF;" parent="1" edge="1">
          <mxGeometry width="50" height="50" relative="1" as="geometry">
            <mxPoint x="-85" y="1918" as="sourcePoint" />
            <mxPoint x="124" y="2101" as="targetPoint" />
            <Array as="points">
              <mxPoint x="-85" y="2101" />
            </Array>
          </mxGeometry>
        </mxCell>
        <mxCell id="L_dloqxEIiIwebqbIpQP-28" value="" style="group" parent="1" vertex="1" connectable="0">
          <mxGeometry x="126" y="2330" width="210" height="120" as="geometry" />
        </mxCell>
        <mxCell id="L_dloqxEIiIwebqbIpQP-29" value="" style="rounded=1;whiteSpace=wrap;html=1;fillColor=#693F01;strokeColor=#FFFFFF;" parent="L_dloqxEIiIwebqbIpQP-28" vertex="1">
          <mxGeometry width="210" height="120" as="geometry" />
        </mxCell>
        <mxCell id="L_dloqxEIiIwebqbIpQP-30" value="&lt;font color=&quot;#ffffff&quot;&gt;Update Staff Salary&lt;/font&gt;" style="rounded=0;whiteSpace=wrap;html=1;fillColor=#000000;strokeColor=#FFFFFF;" parent="L_dloqxEIiIwebqbIpQP-28" vertex="1">
          <mxGeometry y="25.71428571428571" width="210" height="68.57142857142857" as="geometry" />
        </mxCell>
        <mxCell id="L_dloqxEIiIwebqbIpQP-31" value="" style="endArrow=none;html=1;rounded=0;strokeColor=#FFFFFF;" parent="L_dloqxEIiIwebqbIpQP-28" edge="1">
          <mxGeometry width="50" height="50" relative="1" as="geometry">
            <mxPoint x="33.6" y="25.71428571428571" as="sourcePoint" />
            <mxPoint x="33.6" as="targetPoint" />
          </mxGeometry>
        </mxCell>
        <mxCell id="L_dloqxEIiIwebqbIpQP-32" value="&lt;font color=&quot;#ffffff&quot;&gt;12&lt;/font&gt;" style="rounded=0;whiteSpace=wrap;html=1;fillColor=none;strokeColor=none;" parent="L_dloqxEIiIwebqbIpQP-28" vertex="1">
          <mxGeometry x="8.4" y="8.571428571428571" width="25.2" height="17.142857142857142" as="geometry" />
        </mxCell>
        <mxCell id="L_dloqxEIiIwebqbIpQP-33" value="" style="group" parent="1" vertex="1" connectable="0">
          <mxGeometry x="470" y="2360" width="160" height="60" as="geometry" />
        </mxCell>
        <mxCell id="L_dloqxEIiIwebqbIpQP-34" value="&lt;font color=&quot;#ffffff&quot;&gt;staffSalary&lt;/font&gt;" style="rounded=0;whiteSpace=wrap;html=1;fillColor=#693F01;gradientColor=none;strokeColor=#FFFFFF;" parent="L_dloqxEIiIwebqbIpQP-33" vertex="1">
          <mxGeometry x="40" width="120" height="60" as="geometry" />
        </mxCell>
        <mxCell id="L_dloqxEIiIwebqbIpQP-35" value="&lt;font color=&quot;#ffffff&quot;&gt;D&lt;/font&gt;" style="rounded=0;whiteSpace=wrap;html=1;fillColor=#4D4D4D;strokeColor=#FFFFFF;" parent="L_dloqxEIiIwebqbIpQP-33" vertex="1">
          <mxGeometry width="40" height="60" as="geometry" />
        </mxCell>
        <mxCell id="L_dloqxEIiIwebqbIpQP-36" value="" style="endArrow=classic;html=1;rounded=0;fontColor=#FFFFFF;strokeColor=#FFFFFF;exitX=1;exitY=0.5;exitDx=0;exitDy=0;entryX=0;entryY=0.5;entryDx=0;entryDy=0;" parent="1" source="L_dloqxEIiIwebqbIpQP-30" target="L_dloqxEIiIwebqbIpQP-35" edge="1">
          <mxGeometry width="50" height="50" relative="1" as="geometry">
            <mxPoint x="381" y="2347" as="sourcePoint" />
            <mxPoint x="451" y="2406" as="targetPoint" />
            <Array as="points" />
          </mxGeometry>
        </mxCell>
        <mxCell id="L_dloqxEIiIwebqbIpQP-37" value="Update staff salary status" style="text;html=1;strokeColor=none;fillColor=none;align=center;verticalAlign=middle;whiteSpace=wrap;rounded=0;fontColor=#FFFFFF;" parent="1" vertex="1">
          <mxGeometry x="347" y="2363" width="93" height="24" as="geometry" />
        </mxCell>
        <mxCell id="L_dloqxEIiIwebqbIpQP-38" value="Update staff salary status" style="text;html=1;strokeColor=none;fillColor=none;align=center;verticalAlign=middle;whiteSpace=wrap;rounded=0;fontColor=#FFFFFF;" parent="1" vertex="1">
          <mxGeometry x="-43.5" y="2363" width="148" height="24" as="geometry" />
        </mxCell>
        <mxCell id="L_dloqxEIiIwebqbIpQP-39" value="" style="endArrow=classic;html=1;rounded=0;strokeColor=#FFFFFF;" parent="1" edge="1">
          <mxGeometry width="50" height="50" relative="1" as="geometry">
            <mxPoint x="-85" y="2099" as="sourcePoint" />
            <mxPoint x="125" y="2387" as="targetPoint" />
            <Array as="points">
              <mxPoint x="-84" y="2387" />
            </Array>
          </mxGeometry>
        </mxCell>
        <mxCell id="L_dloqxEIiIwebqbIpQP-40" value="" style="group" parent="1" vertex="1" connectable="0">
          <mxGeometry x="122" y="1363" width="210" height="120" as="geometry" />
        </mxCell>
        <mxCell id="L_dloqxEIiIwebqbIpQP-41" value="" style="rounded=1;whiteSpace=wrap;html=1;fillColor=#693F01;strokeColor=#FFFFFF;" parent="L_dloqxEIiIwebqbIpQP-40" vertex="1">
          <mxGeometry width="210" height="120" as="geometry" />
        </mxCell>
        <mxCell id="L_dloqxEIiIwebqbIpQP-42" value="&lt;font color=&quot;#ffffff&quot;&gt;Remind Student&lt;/font&gt;" style="rounded=0;whiteSpace=wrap;html=1;fillColor=#000000;strokeColor=#FFFFFF;" parent="L_dloqxEIiIwebqbIpQP-40" vertex="1">
          <mxGeometry y="25.71428571428571" width="210" height="68.57142857142857" as="geometry" />
        </mxCell>
        <mxCell id="L_dloqxEIiIwebqbIpQP-43" value="" style="endArrow=none;html=1;rounded=0;strokeColor=#FFFFFF;" parent="L_dloqxEIiIwebqbIpQP-40" edge="1">
          <mxGeometry width="50" height="50" relative="1" as="geometry">
            <mxPoint x="33.6" y="25.71428571428571" as="sourcePoint" />
            <mxPoint x="33.6" as="targetPoint" />
          </mxGeometry>
        </mxCell>
        <mxCell id="L_dloqxEIiIwebqbIpQP-44" value="&lt;font color=&quot;#ffffff&quot;&gt;8&lt;/font&gt;" style="rounded=0;whiteSpace=wrap;html=1;fillColor=none;strokeColor=none;" parent="L_dloqxEIiIwebqbIpQP-40" vertex="1">
          <mxGeometry x="8.4" y="8.571428571428571" width="25.2" height="17.142857142857142" as="geometry" />
        </mxCell>
        <mxCell id="L_dloqxEIiIwebqbIpQP-45" value="Borrow date has expired" style="text;html=1;strokeColor=none;fillColor=none;align=center;verticalAlign=middle;whiteSpace=wrap;rounded=0;fontColor=#FFFFFF;" parent="1" vertex="1">
          <mxGeometry x="346" y="1398" width="140" height="24" as="geometry" />
        </mxCell>
        <mxCell id="L_dloqxEIiIwebqbIpQP-48" value="Remind student" style="text;html=1;strokeColor=none;fillColor=none;align=center;verticalAlign=middle;whiteSpace=wrap;rounded=0;fontColor=#FFFFFF;" parent="1" vertex="1">
          <mxGeometry x="-49" y="1398" width="140" height="24" as="geometry" />
        </mxCell>
        <mxCell id="L_dloqxEIiIwebqbIpQP-62" value="" style="group" parent="1" vertex="1" connectable="0">
          <mxGeometry x="126" y="2554" width="210" height="120" as="geometry" />
        </mxCell>
        <mxCell id="L_dloqxEIiIwebqbIpQP-63" value="" style="rounded=1;whiteSpace=wrap;html=1;fillColor=#693F01;strokeColor=#FFFFFF;" parent="L_dloqxEIiIwebqbIpQP-62" vertex="1">
          <mxGeometry width="210" height="120" as="geometry" />
        </mxCell>
        <mxCell id="L_dloqxEIiIwebqbIpQP-64" value="&lt;font color=&quot;#ffffff&quot;&gt;Edit course schedule&lt;/font&gt;" style="rounded=0;whiteSpace=wrap;html=1;fillColor=#000000;strokeColor=#FFFFFF;" parent="L_dloqxEIiIwebqbIpQP-62" vertex="1">
          <mxGeometry y="25.71428571428571" width="210" height="68.57142857142857" as="geometry" />
        </mxCell>
        <mxCell id="L_dloqxEIiIwebqbIpQP-65" value="" style="endArrow=none;html=1;rounded=0;strokeColor=#FFFFFF;" parent="L_dloqxEIiIwebqbIpQP-62" edge="1">
          <mxGeometry width="50" height="50" relative="1" as="geometry">
            <mxPoint x="33.6" y="25.71428571428571" as="sourcePoint" />
            <mxPoint x="33.6" as="targetPoint" />
          </mxGeometry>
        </mxCell>
        <mxCell id="L_dloqxEIiIwebqbIpQP-66" value="&lt;font color=&quot;#ffffff&quot;&gt;14&lt;/font&gt;" style="rounded=0;whiteSpace=wrap;html=1;fillColor=none;strokeColor=none;" parent="L_dloqxEIiIwebqbIpQP-62" vertex="1">
          <mxGeometry x="8.4" y="8.571428571428571" width="25.2" height="17.142857142857142" as="geometry" />
        </mxCell>
        <mxCell id="L_dloqxEIiIwebqbIpQP-67" value="" style="group" parent="1" vertex="1" connectable="0">
          <mxGeometry x="469" y="2699" width="160" height="60" as="geometry" />
        </mxCell>
        <mxCell id="L_dloqxEIiIwebqbIpQP-68" value="&lt;font color=&quot;#ffffff&quot;&gt;courseSchedule&lt;/font&gt;" style="rounded=0;whiteSpace=wrap;html=1;fillColor=#693F01;gradientColor=none;strokeColor=#FFFFFF;" parent="L_dloqxEIiIwebqbIpQP-67" vertex="1">
          <mxGeometry x="40" width="120" height="60" as="geometry" />
        </mxCell>
        <mxCell id="L_dloqxEIiIwebqbIpQP-69" value="&lt;font color=&quot;#ffffff&quot;&gt;D&lt;/font&gt;" style="rounded=0;whiteSpace=wrap;html=1;fillColor=#4D4D4D;strokeColor=#FFFFFF;" parent="L_dloqxEIiIwebqbIpQP-67" vertex="1">
          <mxGeometry width="40" height="60" as="geometry" />
        </mxCell>
        <mxCell id="L_dloqxEIiIwebqbIpQP-70" value="" style="endArrow=classic;html=1;rounded=0;fontColor=#FFFFFF;strokeColor=#FFFFFF;exitX=1;exitY=0.5;exitDx=0;exitDy=0;entryX=0;entryY=0.5;entryDx=0;entryDy=0;" parent="1" source="L_dloqxEIiIwebqbIpQP-64" target="L_dloqxEIiIwebqbIpQP-69" edge="1">
          <mxGeometry width="50" height="50" relative="1" as="geometry">
            <mxPoint x="381" y="2571" as="sourcePoint" />
            <mxPoint x="451" y="2630" as="targetPoint" />
            <Array as="points" />
          </mxGeometry>
        </mxCell>
        <mxCell id="khXXdSDkWywSzuok3T_t-36" value="&lt;font style=&quot;background-color: rgb(0, 0, 0);&quot; color=&quot;#ffffff&quot;&gt;Edit course schedule&lt;/font&gt;" style="edgeLabel;html=1;align=center;verticalAlign=middle;resizable=0;points=[];" parent="L_dloqxEIiIwebqbIpQP-70" vertex="1" connectable="0">
          <mxGeometry x="-0.0001" y="1" relative="1" as="geometry">
            <mxPoint as="offset" />
          </mxGeometry>
        </mxCell>
        <mxCell id="L_dloqxEIiIwebqbIpQP-72" value="Edit course schedule" style="text;html=1;strokeColor=none;fillColor=none;align=center;verticalAlign=middle;whiteSpace=wrap;rounded=0;fontColor=#FFFFFF;" parent="1" vertex="1">
          <mxGeometry x="-39" y="2587" width="148" height="24" as="geometry" />
        </mxCell>
        <mxCell id="L_dloqxEIiIwebqbIpQP-73" value="" style="endArrow=classic;html=1;rounded=0;strokeColor=#FFFFFF;" parent="1" edge="1">
          <mxGeometry width="50" height="50" relative="1" as="geometry">
            <mxPoint x="-84" y="2380" as="sourcePoint" />
            <mxPoint x="125" y="2611" as="targetPoint" />
            <Array as="points">
              <mxPoint x="-84" y="2611" />
            </Array>
          </mxGeometry>
        </mxCell>
        <mxCell id="L_dloqxEIiIwebqbIpQP-76" value="" style="group" parent="1" vertex="1" connectable="0">
          <mxGeometry x="126" y="2872" width="210" height="120" as="geometry" />
        </mxCell>
        <mxCell id="L_dloqxEIiIwebqbIpQP-77" value="" style="rounded=1;whiteSpace=wrap;html=1;fillColor=#693F01;strokeColor=#FFFFFF;" parent="L_dloqxEIiIwebqbIpQP-76" vertex="1">
          <mxGeometry width="210" height="120" as="geometry" />
        </mxCell>
        <mxCell id="L_dloqxEIiIwebqbIpQP-78" value="&lt;font color=&quot;#ffffff&quot;&gt;New book&lt;/font&gt;" style="rounded=0;whiteSpace=wrap;html=1;fillColor=#000000;strokeColor=#FFFFFF;" parent="L_dloqxEIiIwebqbIpQP-76" vertex="1">
          <mxGeometry y="25.71428571428571" width="210" height="68.57142857142857" as="geometry" />
        </mxCell>
        <mxCell id="L_dloqxEIiIwebqbIpQP-79" value="" style="endArrow=none;html=1;rounded=0;strokeColor=#FFFFFF;" parent="L_dloqxEIiIwebqbIpQP-76" edge="1">
          <mxGeometry width="50" height="50" relative="1" as="geometry">
            <mxPoint x="33.6" y="25.71428571428571" as="sourcePoint" />
            <mxPoint x="33.6" as="targetPoint" />
          </mxGeometry>
        </mxCell>
        <mxCell id="L_dloqxEIiIwebqbIpQP-80" value="&lt;font color=&quot;#ffffff&quot;&gt;15&lt;/font&gt;" style="rounded=0;whiteSpace=wrap;html=1;fillColor=none;strokeColor=none;" parent="L_dloqxEIiIwebqbIpQP-76" vertex="1">
          <mxGeometry x="8.4" y="8.571428571428571" width="25.2" height="17.142857142857142" as="geometry" />
        </mxCell>
        <mxCell id="L_dloqxEIiIwebqbIpQP-81" value="" style="group" parent="1" vertex="1" connectable="0">
          <mxGeometry x="469" y="2903" width="160" height="60" as="geometry" />
        </mxCell>
        <mxCell id="L_dloqxEIiIwebqbIpQP-82" value="&lt;font color=&quot;#ffffff&quot;&gt;bookList&lt;/font&gt;" style="rounded=0;whiteSpace=wrap;html=1;fillColor=#693F01;gradientColor=none;strokeColor=#FFFFFF;" parent="L_dloqxEIiIwebqbIpQP-81" vertex="1">
          <mxGeometry x="40" width="120" height="60" as="geometry" />
        </mxCell>
        <mxCell id="L_dloqxEIiIwebqbIpQP-83" value="&lt;font color=&quot;#ffffff&quot;&gt;D&lt;/font&gt;" style="rounded=0;whiteSpace=wrap;html=1;fillColor=#4D4D4D;strokeColor=#FFFFFF;" parent="L_dloqxEIiIwebqbIpQP-81" vertex="1">
          <mxGeometry width="40" height="60" as="geometry" />
        </mxCell>
        <mxCell id="L_dloqxEIiIwebqbIpQP-84" value="" style="endArrow=classic;html=1;rounded=0;fontColor=#FFFFFF;strokeColor=#FFFFFF;exitX=1;exitY=0.5;exitDx=0;exitDy=0;entryX=0;entryY=0.5;entryDx=0;entryDy=0;" parent="1" source="L_dloqxEIiIwebqbIpQP-78" target="L_dloqxEIiIwebqbIpQP-83" edge="1">
          <mxGeometry width="50" height="50" relative="1" as="geometry">
            <mxPoint x="375" y="2813" as="sourcePoint" />
            <mxPoint x="445" y="2872" as="targetPoint" />
            <Array as="points" />
          </mxGeometry>
        </mxCell>
        <mxCell id="L_dloqxEIiIwebqbIpQP-85" value="Insert new book" style="text;html=1;strokeColor=none;fillColor=none;align=center;verticalAlign=middle;whiteSpace=wrap;rounded=0;fontColor=#FFFFFF;" parent="1" vertex="1">
          <mxGeometry x="356" y="2909" width="93" height="24" as="geometry" />
        </mxCell>
        <mxCell id="L_dloqxEIiIwebqbIpQP-87" value="" style="endArrow=classic;html=1;rounded=0;strokeColor=#FFFFFF;" parent="1" edge="1">
          <mxGeometry width="50" height="50" relative="1" as="geometry">
            <mxPoint x="-84" y="2605" as="sourcePoint" />
            <mxPoint x="125" y="2933" as="targetPoint" />
            <Array as="points">
              <mxPoint x="-84" y="2933" />
            </Array>
          </mxGeometry>
        </mxCell>
        <mxCell id="WkFLAN1-Dz0-E7cTvf8F-1" value="Insert new book" style="text;html=1;strokeColor=none;fillColor=none;align=center;verticalAlign=middle;whiteSpace=wrap;rounded=0;fontColor=#FFFFFF;" parent="1" vertex="1">
          <mxGeometry x="-39" y="2903" width="98" height="27" as="geometry" />
        </mxCell>
        <mxCell id="khXXdSDkWywSzuok3T_t-1" value="" style="group" parent="1" vertex="1" connectable="0">
          <mxGeometry x="472" y="2044" width="160" height="60" as="geometry" />
        </mxCell>
        <mxCell id="khXXdSDkWywSzuok3T_t-2" value="&lt;font color=&quot;#ffffff&quot;&gt;Staff&lt;/font&gt;" style="rounded=0;whiteSpace=wrap;html=1;fillColor=#693F01;gradientColor=none;strokeColor=#FFFFFF;" parent="khXXdSDkWywSzuok3T_t-1" vertex="1">
          <mxGeometry x="40" width="120" height="60" as="geometry" />
        </mxCell>
        <mxCell id="khXXdSDkWywSzuok3T_t-3" value="&lt;font color=&quot;#ffffff&quot;&gt;D&lt;/font&gt;" style="rounded=0;whiteSpace=wrap;html=1;fillColor=#4D4D4D;strokeColor=#FFFFFF;" parent="khXXdSDkWywSzuok3T_t-1" vertex="1">
          <mxGeometry width="40" height="60" as="geometry" />
        </mxCell>
        <mxCell id="khXXdSDkWywSzuok3T_t-12" value="" style="endArrow=classic;html=1;rounded=0;fontColor=#FFFFFF;strokeColor=#FFFFFF;exitX=0;exitY=0.5;exitDx=0;exitDy=0;entryX=1;entryY=0.25;entryDx=0;entryDy=0;" parent="1" source="khXXdSDkWywSzuok3T_t-3" target="L_dloqxEIiIwebqbIpQP-4" edge="1">
          <mxGeometry width="50" height="50" relative="1" as="geometry">
            <mxPoint x="356" y="2053" as="sourcePoint" />
            <mxPoint x="498" y="2174" as="targetPoint" />
            <Array as="points" />
          </mxGeometry>
        </mxCell>
        <mxCell id="khXXdSDkWywSzuok3T_t-13" value="&lt;font color=&quot;#ffffff&quot;&gt;&lt;span style=&quot;background-color: rgb(0, 0, 0);&quot;&gt;Enter Principal&lt;/span&gt;&lt;/font&gt;" style="edgeLabel;html=1;align=center;verticalAlign=middle;resizable=0;points=[];" parent="khXXdSDkWywSzuok3T_t-12" vertex="1" connectable="0">
          <mxGeometry x="0.0952" y="2" relative="1" as="geometry">
            <mxPoint as="offset" />
          </mxGeometry>
        </mxCell>
        <mxCell id="khXXdSDkWywSzuok3T_t-18" value="" style="endArrow=classic;html=1;rounded=0;fontColor=#FFFFFF;strokeColor=#FFFFFF;exitX=0;exitY=0.75;exitDx=0;exitDy=0;entryX=0.75;entryY=0;entryDx=0;entryDy=0;" parent="1" source="ozppCbCyK6Lj_qtel31T-45" target="L_dloqxEIiIwebqbIpQP-3" edge="1">
          <mxGeometry width="50" height="50" relative="1" as="geometry">
            <mxPoint x="456" y="2003" as="sourcePoint" />
            <mxPoint x="319" y="2011" as="targetPoint" />
            <Array as="points" />
          </mxGeometry>
        </mxCell>
        <mxCell id="khXXdSDkWywSzuok3T_t-19" value="&lt;font color=&quot;#ffffff&quot;&gt;&lt;span style=&quot;background-color: rgb(0, 0, 0);&quot;&gt;Enter schoolThirdParties ID&lt;/span&gt;&lt;/font&gt;" style="edgeLabel;html=1;align=center;verticalAlign=middle;resizable=0;points=[];" parent="khXXdSDkWywSzuok3T_t-18" vertex="1" connectable="0">
          <mxGeometry x="0.0952" y="2" relative="1" as="geometry">
            <mxPoint as="offset" />
          </mxGeometry>
        </mxCell>
        <mxCell id="khXXdSDkWywSzuok3T_t-21" value="" style="endArrow=classic;html=1;rounded=0;fontColor=#FFFFFF;strokeColor=#FFFFFF;exitX=1;exitY=0.5;exitDx=0;exitDy=0;entryX=1;entryY=0.25;entryDx=0;entryDy=0;" parent="1" source="0qaDB-c1ABUbavJTGYAx-38" target="L_dloqxEIiIwebqbIpQP-3" edge="1">
          <mxGeometry width="50" height="50" relative="1" as="geometry">
            <mxPoint x="365" y="1188" as="sourcePoint" />
            <mxPoint x="680" y="2046" as="targetPoint" />
            <Array as="points">
              <mxPoint x="675" y="1116" />
              <mxPoint x="680" y="1966" />
            </Array>
          </mxGeometry>
        </mxCell>
        <mxCell id="khXXdSDkWywSzuok3T_t-22" value="&lt;font color=&quot;#ffffff&quot;&gt;&lt;span style=&quot;background-color: rgb(0, 0, 0);&quot;&gt;&amp;nbsp; student payment account&amp;nbsp; &amp;nbsp;&lt;/span&gt;&lt;/font&gt;" style="edgeLabel;html=1;align=center;verticalAlign=middle;resizable=0;points=[];" parent="khXXdSDkWywSzuok3T_t-21" vertex="1" connectable="0">
          <mxGeometry x="0.6375" y="2" relative="1" as="geometry">
            <mxPoint as="offset" />
          </mxGeometry>
        </mxCell>
        <mxCell id="khXXdSDkWywSzuok3T_t-23" value="" style="endArrow=classic;html=1;rounded=0;fontColor=#FFFFFF;strokeColor=#FFFFFF;exitX=1;exitY=0.5;exitDx=0;exitDy=0;entryX=1;entryY=0.75;entryDx=0;entryDy=0;" parent="1" source="L_dloqxEIiIwebqbIpQP-34" target="L_dloqxEIiIwebqbIpQP-4" edge="1">
          <mxGeometry width="50" height="50" relative="1" as="geometry">
            <mxPoint x="697" y="1692" as="sourcePoint" />
            <mxPoint x="411" y="2645" as="targetPoint" />
            <Array as="points">
              <mxPoint x="688" y="2390" />
              <mxPoint x="683" y="2116" />
            </Array>
          </mxGeometry>
        </mxCell>
        <mxCell id="khXXdSDkWywSzuok3T_t-24" value="&lt;font color=&quot;#ffffff&quot;&gt;&lt;span style=&quot;background-color: rgb(0, 0, 0);&quot;&gt;&amp;nbsp;Staff Salary Account&amp;nbsp;&amp;nbsp;&lt;/span&gt;&lt;/font&gt;" style="edgeLabel;html=1;align=center;verticalAlign=middle;resizable=0;points=[];" parent="khXXdSDkWywSzuok3T_t-23" vertex="1" connectable="0">
          <mxGeometry x="0.6375" y="2" relative="1" as="geometry">
            <mxPoint as="offset" />
          </mxGeometry>
        </mxCell>
        <mxCell id="khXXdSDkWywSzuok3T_t-25" value="" style="group" parent="1" vertex="1" connectable="0">
          <mxGeometry x="471" y="2809" width="160" height="60" as="geometry" />
        </mxCell>
        <mxCell id="khXXdSDkWywSzuok3T_t-26" value="&lt;font color=&quot;#ffffff&quot;&gt;categoriesBook&lt;/font&gt;" style="rounded=0;whiteSpace=wrap;html=1;fillColor=#693F01;gradientColor=none;strokeColor=#FFFFFF;" parent="khXXdSDkWywSzuok3T_t-25" vertex="1">
          <mxGeometry x="40" width="120" height="60" as="geometry" />
        </mxCell>
        <mxCell id="khXXdSDkWywSzuok3T_t-27" value="&lt;font color=&quot;#ffffff&quot;&gt;D&lt;/font&gt;" style="rounded=0;whiteSpace=wrap;html=1;fillColor=#4D4D4D;strokeColor=#FFFFFF;" parent="khXXdSDkWywSzuok3T_t-25" vertex="1">
          <mxGeometry width="40" height="60" as="geometry" />
        </mxCell>
        <mxCell id="khXXdSDkWywSzuok3T_t-28" value="" style="endArrow=classic;html=1;rounded=0;fontColor=#FFFFFF;strokeColor=#FFFFFF;exitX=0;exitY=0.5;exitDx=0;exitDy=0;entryX=1;entryY=0;entryDx=0;entryDy=0;" parent="1" source="khXXdSDkWywSzuok3T_t-27" target="L_dloqxEIiIwebqbIpQP-78" edge="1">
          <mxGeometry width="50" height="50" relative="1" as="geometry">
            <mxPoint x="319" y="2815" as="sourcePoint" />
            <mxPoint x="453" y="2815" as="targetPoint" />
            <Array as="points" />
          </mxGeometry>
        </mxCell>
        <mxCell id="khXXdSDkWywSzuok3T_t-29" value="&lt;font color=&quot;#ffffff&quot;&gt;&lt;span style=&quot;background-color: rgb(0, 0, 0);&quot;&gt;According by categories&amp;nbsp;&lt;/span&gt;&lt;/font&gt;" style="edgeLabel;html=1;align=center;verticalAlign=middle;resizable=0;points=[];" parent="khXXdSDkWywSzuok3T_t-28" vertex="1" connectable="0">
          <mxGeometry x="0.0336" y="-1" relative="1" as="geometry">
            <mxPoint as="offset" />
          </mxGeometry>
        </mxCell>
        <mxCell id="khXXdSDkWywSzuok3T_t-30" value="" style="group" parent="1" vertex="1" connectable="0">
          <mxGeometry x="472" y="2457" width="160" height="60" as="geometry" />
        </mxCell>
        <mxCell id="khXXdSDkWywSzuok3T_t-31" value="&lt;font color=&quot;#ffffff&quot;&gt;roomList&lt;/font&gt;" style="rounded=0;whiteSpace=wrap;html=1;fillColor=#693F01;gradientColor=none;strokeColor=#FFFFFF;" parent="khXXdSDkWywSzuok3T_t-30" vertex="1">
          <mxGeometry x="40" width="120" height="60" as="geometry" />
        </mxCell>
        <mxCell id="khXXdSDkWywSzuok3T_t-32" value="&lt;font color=&quot;#ffffff&quot;&gt;D&lt;/font&gt;" style="rounded=0;whiteSpace=wrap;html=1;fillColor=#4D4D4D;strokeColor=#FFFFFF;" parent="khXXdSDkWywSzuok3T_t-30" vertex="1">
          <mxGeometry width="40" height="60" as="geometry" />
        </mxCell>
        <mxCell id="khXXdSDkWywSzuok3T_t-33" value="" style="group" parent="1" vertex="1" connectable="0">
          <mxGeometry x="472" y="2527" width="160" height="60" as="geometry" />
        </mxCell>
        <mxCell id="khXXdSDkWywSzuok3T_t-34" value="&lt;font color=&quot;#ffffff&quot;&gt;Staff&lt;/font&gt;" style="rounded=0;whiteSpace=wrap;html=1;fillColor=#693F01;gradientColor=none;strokeColor=#FFFFFF;" parent="khXXdSDkWywSzuok3T_t-33" vertex="1">
          <mxGeometry x="40" width="120" height="60" as="geometry" />
        </mxCell>
        <mxCell id="khXXdSDkWywSzuok3T_t-35" value="&lt;font color=&quot;#ffffff&quot;&gt;D&lt;/font&gt;" style="rounded=0;whiteSpace=wrap;html=1;fillColor=#4D4D4D;strokeColor=#FFFFFF;" parent="khXXdSDkWywSzuok3T_t-33" vertex="1">
          <mxGeometry width="40" height="60" as="geometry" />
        </mxCell>
        <mxCell id="khXXdSDkWywSzuok3T_t-37" value="" style="endArrow=classic;html=1;rounded=0;fontColor=#FFFFFF;strokeColor=#FFFFFF;exitX=0;exitY=0.5;exitDx=0;exitDy=0;entryX=1;entryY=0.25;entryDx=0;entryDy=0;" parent="1" source="khXXdSDkWywSzuok3T_t-35" target="L_dloqxEIiIwebqbIpQP-64" edge="1">
          <mxGeometry width="50" height="50" relative="1" as="geometry">
            <mxPoint x="352" y="2554" as="sourcePoint" />
            <mxPoint x="490" y="2611" as="targetPoint" />
            <Array as="points" />
          </mxGeometry>
        </mxCell>
        <mxCell id="khXXdSDkWywSzuok3T_t-38" value="&lt;font color=&quot;#ffffff&quot;&gt;&lt;span style=&quot;background-color: rgb(0, 0, 0);&quot;&gt;According by staff&lt;/span&gt;&lt;/font&gt;" style="edgeLabel;html=1;align=center;verticalAlign=middle;resizable=0;points=[];" parent="khXXdSDkWywSzuok3T_t-37" vertex="1" connectable="0">
          <mxGeometry x="-0.0001" y="1" relative="1" as="geometry">
            <mxPoint as="offset" />
          </mxGeometry>
        </mxCell>
        <mxCell id="khXXdSDkWywSzuok3T_t-40" value="" style="endArrow=classic;html=1;rounded=0;fontColor=#FFFFFF;strokeColor=#FFFFFF;exitX=0;exitY=0.5;exitDx=0;exitDy=0;entryX=1;entryY=0.25;entryDx=0;entryDy=0;" parent="1" source="khXXdSDkWywSzuok3T_t-32" target="L_dloqxEIiIwebqbIpQP-63" edge="1">
          <mxGeometry width="50" height="50" relative="1" as="geometry">
            <mxPoint x="460" y="2550.07" as="sourcePoint" />
            <mxPoint x="322" y="2550.07" as="targetPoint" />
            <Array as="points" />
          </mxGeometry>
        </mxCell>
        <mxCell id="khXXdSDkWywSzuok3T_t-41" value="&lt;font color=&quot;#ffffff&quot;&gt;&lt;span style=&quot;background-color: rgb(0, 0, 0);&quot;&gt;According by room&lt;/span&gt;&lt;/font&gt;" style="edgeLabel;html=1;align=center;verticalAlign=middle;resizable=0;points=[];" parent="khXXdSDkWywSzuok3T_t-40" vertex="1" connectable="0">
          <mxGeometry x="-0.0001" y="1" relative="1" as="geometry">
            <mxPoint as="offset" />
          </mxGeometry>
        </mxCell>
        <mxCell id="khXXdSDkWywSzuok3T_t-42" value="" style="group" parent="1" vertex="1" connectable="0">
          <mxGeometry x="473" y="2597" width="160" height="60" as="geometry" />
        </mxCell>
        <mxCell id="khXXdSDkWywSzuok3T_t-43" value="&lt;font color=&quot;#ffffff&quot;&gt;subjectList&lt;/font&gt;" style="rounded=0;whiteSpace=wrap;html=1;fillColor=#693F01;gradientColor=none;strokeColor=#FFFFFF;" parent="khXXdSDkWywSzuok3T_t-42" vertex="1">
          <mxGeometry x="40" width="120" height="60" as="geometry" />
        </mxCell>
        <mxCell id="khXXdSDkWywSzuok3T_t-44" value="&lt;font color=&quot;#ffffff&quot;&gt;D&lt;/font&gt;" style="rounded=0;whiteSpace=wrap;html=1;fillColor=#4D4D4D;strokeColor=#FFFFFF;" parent="khXXdSDkWywSzuok3T_t-42" vertex="1">
          <mxGeometry width="40" height="60" as="geometry" />
        </mxCell>
        <mxCell id="khXXdSDkWywSzuok3T_t-45" value="" style="endArrow=classic;html=1;rounded=0;fontColor=#FFFFFF;strokeColor=#FFFFFF;exitX=0;exitY=0.5;exitDx=0;exitDy=0;entryX=0.995;entryY=0.359;entryDx=0;entryDy=0;entryPerimeter=0;" parent="1" source="khXXdSDkWywSzuok3T_t-44" target="L_dloqxEIiIwebqbIpQP-64" edge="1">
          <mxGeometry width="50" height="50" relative="1" as="geometry">
            <mxPoint x="503" y="2594" as="sourcePoint" />
            <mxPoint x="367" y="2623" as="targetPoint" />
            <Array as="points" />
          </mxGeometry>
        </mxCell>
        <mxCell id="khXXdSDkWywSzuok3T_t-46" value="&lt;font color=&quot;#ffffff&quot;&gt;&lt;span style=&quot;background-color: rgb(0, 0, 0);&quot;&gt;According by subject&amp;nbsp;&lt;/span&gt;&lt;/font&gt;" style="edgeLabel;html=1;align=center;verticalAlign=middle;resizable=0;points=[];" parent="khXXdSDkWywSzuok3T_t-45" vertex="1" connectable="0">
          <mxGeometry x="-0.0001" y="1" relative="1" as="geometry">
            <mxPoint as="offset" />
          </mxGeometry>
        </mxCell>
        <mxCell id="khXXdSDkWywSzuok3T_t-48" value="" style="group" parent="1" vertex="1" connectable="0">
          <mxGeometry x="126" y="3082" width="210" height="120" as="geometry" />
        </mxCell>
        <mxCell id="khXXdSDkWywSzuok3T_t-49" value="" style="rounded=1;whiteSpace=wrap;html=1;fillColor=#693F01;strokeColor=#FFFFFF;" parent="khXXdSDkWywSzuok3T_t-48" vertex="1">
          <mxGeometry width="210" height="120" as="geometry" />
        </mxCell>
        <mxCell id="khXXdSDkWywSzuok3T_t-50" value="&lt;font color=&quot;#ffffff&quot;&gt;New student&lt;/font&gt;" style="rounded=0;whiteSpace=wrap;html=1;fillColor=#000000;strokeColor=#FFFFFF;" parent="khXXdSDkWywSzuok3T_t-48" vertex="1">
          <mxGeometry y="25.71428571428571" width="210" height="68.57142857142857" as="geometry" />
        </mxCell>
        <mxCell id="khXXdSDkWywSzuok3T_t-51" value="" style="endArrow=none;html=1;rounded=0;strokeColor=#FFFFFF;" parent="khXXdSDkWywSzuok3T_t-48" edge="1">
          <mxGeometry width="50" height="50" relative="1" as="geometry">
            <mxPoint x="33.6" y="25.71428571428571" as="sourcePoint" />
            <mxPoint x="33.6" as="targetPoint" />
          </mxGeometry>
        </mxCell>
        <mxCell id="khXXdSDkWywSzuok3T_t-52" value="&lt;font color=&quot;#ffffff&quot;&gt;16&lt;/font&gt;" style="rounded=0;whiteSpace=wrap;html=1;fillColor=none;strokeColor=none;" parent="khXXdSDkWywSzuok3T_t-48" vertex="1">
          <mxGeometry x="8.4" y="8.571428571428571" width="25.2" height="17.142857142857142" as="geometry" />
        </mxCell>
        <mxCell id="khXXdSDkWywSzuok3T_t-53" value="" style="group" parent="1" vertex="1" connectable="0">
          <mxGeometry x="469" y="3113" width="160" height="60" as="geometry" />
        </mxCell>
        <mxCell id="khXXdSDkWywSzuok3T_t-54" value="&lt;font color=&quot;#ffffff&quot;&gt;StudentList&lt;/font&gt;" style="rounded=0;whiteSpace=wrap;html=1;fillColor=#693F01;gradientColor=none;strokeColor=#FFFFFF;" parent="khXXdSDkWywSzuok3T_t-53" vertex="1">
          <mxGeometry x="40" width="120" height="60" as="geometry" />
        </mxCell>
        <mxCell id="khXXdSDkWywSzuok3T_t-55" value="&lt;font color=&quot;#ffffff&quot;&gt;D&lt;/font&gt;" style="rounded=0;whiteSpace=wrap;html=1;fillColor=#4D4D4D;strokeColor=#FFFFFF;" parent="khXXdSDkWywSzuok3T_t-53" vertex="1">
          <mxGeometry width="40" height="60" as="geometry" />
        </mxCell>
        <mxCell id="khXXdSDkWywSzuok3T_t-56" value="" style="endArrow=classic;html=1;rounded=0;fontColor=#FFFFFF;strokeColor=#FFFFFF;entryX=0;entryY=0.5;entryDx=0;entryDy=0;" parent="1" target="khXXdSDkWywSzuok3T_t-55" edge="1">
          <mxGeometry width="50" height="50" relative="1" as="geometry">
            <mxPoint x="336" y="3142" as="sourcePoint" />
            <mxPoint x="445" y="3082" as="targetPoint" />
            <Array as="points" />
          </mxGeometry>
        </mxCell>
        <mxCell id="khXXdSDkWywSzuok3T_t-57" value="Insert student data" style="text;html=1;strokeColor=none;fillColor=none;align=center;verticalAlign=middle;whiteSpace=wrap;rounded=0;fontColor=#FFFFFF;" parent="1" vertex="1">
          <mxGeometry x="349" y="3119" width="107" height="24" as="geometry" />
        </mxCell>
        <mxCell id="khXXdSDkWywSzuok3T_t-58" value="Add new student" style="text;html=1;strokeColor=none;fillColor=none;align=center;verticalAlign=middle;whiteSpace=wrap;rounded=0;fontColor=#FFFFFF;" parent="1" vertex="1">
          <mxGeometry x="-29" y="3119" width="98" height="27" as="geometry" />
        </mxCell>
        <mxCell id="khXXdSDkWywSzuok3T_t-64" value="" style="endArrow=classic;html=1;rounded=0;strokeColor=#FFFFFF;" parent="1" edge="1">
          <mxGeometry width="50" height="50" relative="1" as="geometry">
            <mxPoint x="-84" y="2919" as="sourcePoint" />
            <mxPoint x="124.5" y="3145" as="targetPoint" />
            <Array as="points">
              <mxPoint x="-84.5" y="3145" />
            </Array>
          </mxGeometry>
        </mxCell>
        <mxCell id="khXXdSDkWywSzuok3T_t-65" value="" style="group" parent="1" vertex="1" connectable="0">
          <mxGeometry x="470" y="3227" width="160" height="60" as="geometry" />
        </mxCell>
        <mxCell id="khXXdSDkWywSzuok3T_t-66" value="&lt;font color=&quot;#ffffff&quot;&gt;Faculty&lt;/font&gt;" style="rounded=0;whiteSpace=wrap;html=1;fillColor=#693F01;gradientColor=none;strokeColor=#FFFFFF;" parent="khXXdSDkWywSzuok3T_t-65" vertex="1">
          <mxGeometry x="40" width="120" height="60" as="geometry" />
        </mxCell>
        <mxCell id="khXXdSDkWywSzuok3T_t-67" value="&lt;font color=&quot;#ffffff&quot;&gt;D&lt;/font&gt;" style="rounded=0;whiteSpace=wrap;html=1;fillColor=#4D4D4D;strokeColor=#FFFFFF;" parent="khXXdSDkWywSzuok3T_t-65" vertex="1">
          <mxGeometry width="40" height="60" as="geometry" />
        </mxCell>
        <mxCell id="khXXdSDkWywSzuok3T_t-68" value="" style="group" parent="1" vertex="1" connectable="0">
          <mxGeometry x="468" y="3316" width="160" height="60" as="geometry" />
        </mxCell>
        <mxCell id="khXXdSDkWywSzuok3T_t-69" value="&lt;font color=&quot;#ffffff&quot;&gt;Department&lt;/font&gt;" style="rounded=0;whiteSpace=wrap;html=1;fillColor=#693F01;gradientColor=none;strokeColor=#FFFFFF;" parent="khXXdSDkWywSzuok3T_t-68" vertex="1">
          <mxGeometry x="40" width="120" height="60" as="geometry" />
        </mxCell>
        <mxCell id="khXXdSDkWywSzuok3T_t-70" value="&lt;font color=&quot;#ffffff&quot;&gt;D&lt;/font&gt;" style="rounded=0;whiteSpace=wrap;html=1;fillColor=#4D4D4D;strokeColor=#FFFFFF;" parent="khXXdSDkWywSzuok3T_t-68" vertex="1">
          <mxGeometry width="40" height="60" as="geometry" />
        </mxCell>
        <mxCell id="khXXdSDkWywSzuok3T_t-71" value="" style="group" parent="1" vertex="1" connectable="0">
          <mxGeometry x="477" y="3469" width="160" height="60" as="geometry" />
        </mxCell>
        <mxCell id="khXXdSDkWywSzuok3T_t-72" value="&lt;font color=&quot;#ffffff&quot;&gt;student_cards&lt;/font&gt;" style="rounded=0;whiteSpace=wrap;html=1;fillColor=#693F01;gradientColor=none;strokeColor=#FFFFFF;" parent="khXXdSDkWywSzuok3T_t-71" vertex="1">
          <mxGeometry x="40" width="120" height="60" as="geometry" />
        </mxCell>
        <mxCell id="khXXdSDkWywSzuok3T_t-73" value="&lt;font color=&quot;#ffffff&quot;&gt;D&lt;/font&gt;" style="rounded=0;whiteSpace=wrap;html=1;fillColor=#4D4D4D;strokeColor=#FFFFFF;" parent="khXXdSDkWywSzuok3T_t-71" vertex="1">
          <mxGeometry width="40" height="60" as="geometry" />
        </mxCell>
        <mxCell id="khXXdSDkWywSzuok3T_t-74" value="" style="group" parent="1" vertex="1" connectable="0">
          <mxGeometry x="462" y="3651" width="160" height="60" as="geometry" />
        </mxCell>
        <mxCell id="khXXdSDkWywSzuok3T_t-75" value="&lt;font color=&quot;#ffffff&quot;&gt;AccountStudent&lt;/font&gt;" style="rounded=0;whiteSpace=wrap;html=1;fillColor=#693F01;gradientColor=none;strokeColor=#FFFFFF;" parent="khXXdSDkWywSzuok3T_t-74" vertex="1">
          <mxGeometry x="40" width="120" height="60" as="geometry" />
        </mxCell>
        <mxCell id="khXXdSDkWywSzuok3T_t-76" value="&lt;font color=&quot;#ffffff&quot;&gt;D&lt;/font&gt;" style="rounded=0;whiteSpace=wrap;html=1;fillColor=#4D4D4D;strokeColor=#FFFFFF;" parent="khXXdSDkWywSzuok3T_t-74" vertex="1">
          <mxGeometry width="40" height="60" as="geometry" />
        </mxCell>
        <mxCell id="khXXdSDkWywSzuok3T_t-77" value="" style="endArrow=classic;html=1;rounded=0;fontColor=#FFFFFF;strokeColor=#FFFFFF;exitX=0.75;exitY=1;exitDx=0;exitDy=0;entryX=0;entryY=0.5;entryDx=0;entryDy=0;" parent="1" source="khXXdSDkWywSzuok3T_t-49" target="khXXdSDkWywSzuok3T_t-67" edge="1">
          <mxGeometry width="50" height="50" relative="1" as="geometry">
            <mxPoint x="337" y="3257.5" as="sourcePoint" />
            <mxPoint x="470" y="3257" as="targetPoint" />
            <Array as="points">
              <mxPoint x="284" y="3258" />
            </Array>
          </mxGeometry>
        </mxCell>
        <mxCell id="khXXdSDkWywSzuok3T_t-78" value="" style="endArrow=classic;html=1;rounded=0;fontColor=#FFFFFF;strokeColor=#FFFFFF;exitX=0.75;exitY=1;exitDx=0;exitDy=0;entryX=0;entryY=0.5;entryDx=0;entryDy=0;" parent="1" source="khXXdSDkWywSzuok3T_t-49" target="khXXdSDkWywSzuok3T_t-70" edge="1">
          <mxGeometry width="50" height="50" relative="1" as="geometry">
            <mxPoint x="266.5" y="3288" as="sourcePoint" />
            <mxPoint x="451.5" y="3344" as="targetPoint" />
            <Array as="points">
              <mxPoint x="284" y="3345" />
            </Array>
          </mxGeometry>
        </mxCell>
        <mxCell id="khXXdSDkWywSzuok3T_t-81" value="Update number of student" style="text;html=1;strokeColor=none;fillColor=none;align=center;verticalAlign=middle;whiteSpace=wrap;rounded=0;fontColor=#FFFFFF;" parent="1" vertex="1">
          <mxGeometry x="317" y="3230" width="97" height="24" as="geometry" />
        </mxCell>
        <mxCell id="khXXdSDkWywSzuok3T_t-82" value="Update number of student" style="text;html=1;strokeColor=none;fillColor=none;align=center;verticalAlign=middle;whiteSpace=wrap;rounded=0;fontColor=#FFFFFF;" parent="1" vertex="1">
          <mxGeometry x="325" y="3316" width="97" height="24" as="geometry" />
        </mxCell>
        <mxCell id="khXXdSDkWywSzuok3T_t-85" value="" style="group" parent="1" vertex="1" connectable="0">
          <mxGeometry x="74" y="3621" width="210" height="120" as="geometry" />
        </mxCell>
        <mxCell id="khXXdSDkWywSzuok3T_t-86" value="" style="rounded=1;whiteSpace=wrap;html=1;fillColor=#693F01;strokeColor=#FFFFFF;" parent="khXXdSDkWywSzuok3T_t-85" vertex="1">
          <mxGeometry width="210" height="120" as="geometry" />
        </mxCell>
        <mxCell id="khXXdSDkWywSzuok3T_t-87" value="&lt;font color=&quot;#ffffff&quot;&gt;create student account&lt;/font&gt;" style="rounded=0;whiteSpace=wrap;html=1;fillColor=#000000;strokeColor=#FFFFFF;" parent="khXXdSDkWywSzuok3T_t-85" vertex="1">
          <mxGeometry y="25.71428571428571" width="210" height="68.57142857142857" as="geometry" />
        </mxCell>
        <mxCell id="khXXdSDkWywSzuok3T_t-88" value="" style="endArrow=none;html=1;rounded=0;strokeColor=#FFFFFF;" parent="khXXdSDkWywSzuok3T_t-85" edge="1">
          <mxGeometry width="50" height="50" relative="1" as="geometry">
            <mxPoint x="33.6" y="25.71428571428571" as="sourcePoint" />
            <mxPoint x="33.6" as="targetPoint" />
          </mxGeometry>
        </mxCell>
        <mxCell id="khXXdSDkWywSzuok3T_t-89" value="&lt;font color=&quot;#ffffff&quot;&gt;18&lt;/font&gt;" style="rounded=0;whiteSpace=wrap;html=1;fillColor=none;strokeColor=none;" parent="khXXdSDkWywSzuok3T_t-85" vertex="1">
          <mxGeometry x="8.4" y="8.571428571428571" width="25.2" height="17.142857142857142" as="geometry" />
        </mxCell>
        <mxCell id="khXXdSDkWywSzuok3T_t-92" value="" style="endArrow=classic;html=1;rounded=0;strokeColor=#FFFFFF;entryX=0.5;entryY=0;entryDx=0;entryDy=0;exitX=0.25;exitY=1;exitDx=0;exitDy=0;" parent="1" source="khXXdSDkWywSzuok3T_t-49" target="khXXdSDkWywSzuok3T_t-86" edge="1">
          <mxGeometry width="50" height="50" relative="1" as="geometry">
            <mxPoint x="-61" y="3018" as="sourcePoint" />
            <mxPoint x="147.5" y="3244" as="targetPoint" />
            <Array as="points" />
          </mxGeometry>
        </mxCell>
        <mxCell id="khXXdSDkWywSzuok3T_t-93" value="create new student account&amp;nbsp;" style="text;html=1;strokeColor=none;fillColor=none;align=center;verticalAlign=middle;whiteSpace=wrap;rounded=0;fontColor=#FFFFFF;" parent="1" vertex="1">
          <mxGeometry x="75" y="3582" width="98" height="27" as="geometry" />
        </mxCell>
        <mxCell id="khXXdSDkWywSzuok3T_t-94" value="" style="endArrow=classic;html=1;rounded=0;strokeColor=#FFFFFF;entryX=0;entryY=0.5;entryDx=0;entryDy=0;exitX=1;exitY=0.5;exitDx=0;exitDy=0;" parent="1" source="khXXdSDkWywSzuok3T_t-87" target="khXXdSDkWywSzuok3T_t-76" edge="1">
          <mxGeometry width="50" height="50" relative="1" as="geometry">
            <mxPoint x="399" y="3413" as="sourcePoint" />
            <mxPoint x="330" y="3590" as="targetPoint" />
            <Array as="points" />
          </mxGeometry>
        </mxCell>
        <mxCell id="khXXdSDkWywSzuok3T_t-95" value="&lt;font color=&quot;#ffffff&quot;&gt;Staff Client&lt;/font&gt;" style="rounded=0;whiteSpace=wrap;html=1;fillColor=#693F01;strokeColor=#FFFFFF;" parent="1" vertex="1">
          <mxGeometry x="-257" y="1390.5" width="150" height="65" as="geometry" />
        </mxCell>
        <mxCell id="khXXdSDkWywSzuok3T_t-98" value="" style="endArrow=classic;html=1;rounded=0;fontColor=#FFFFFF;strokeColor=#FFFFFF;entryX=1;entryY=0.5;entryDx=0;entryDy=0;exitX=0;exitY=0.5;exitDx=0;exitDy=0;" parent="1" source="L_dloqxEIiIwebqbIpQP-42" target="khXXdSDkWywSzuok3T_t-95" edge="1">
          <mxGeometry width="50" height="50" relative="1" as="geometry">
            <mxPoint x="-83" y="1347" as="sourcePoint" />
            <mxPoint x="47" y="1347" as="targetPoint" />
          </mxGeometry>
        </mxCell>
        <mxCell id="khXXdSDkWywSzuok3T_t-99" value="" style="endArrow=classic;html=1;rounded=0;strokeColor=#FFFFFF;entryX=0.25;entryY=0;entryDx=0;entryDy=0;exitX=0.543;exitY=0.999;exitDx=0;exitDy=0;exitPerimeter=0;" parent="1" source="khXXdSDkWywSzuok3T_t-49" target="khXXdSDkWywSzuok3T_t-101" edge="1">
          <mxGeometry width="50" height="50" relative="1" as="geometry">
            <mxPoint x="241" y="3200" as="sourcePoint" />
            <mxPoint x="257" y="3451" as="targetPoint" />
            <Array as="points" />
          </mxGeometry>
        </mxCell>
        <mxCell id="khXXdSDkWywSzuok3T_t-100" value="" style="group" parent="1" vertex="1" connectable="0">
          <mxGeometry x="188" y="3439" width="210" height="120" as="geometry" />
        </mxCell>
        <mxCell id="khXXdSDkWywSzuok3T_t-101" value="" style="rounded=1;whiteSpace=wrap;html=1;fillColor=#693F01;strokeColor=#FFFFFF;" parent="khXXdSDkWywSzuok3T_t-100" vertex="1">
          <mxGeometry width="210" height="120" as="geometry" />
        </mxCell>
        <mxCell id="khXXdSDkWywSzuok3T_t-102" value="&lt;font color=&quot;#ffffff&quot;&gt;create student card&lt;/font&gt;" style="rounded=0;whiteSpace=wrap;html=1;fillColor=#000000;strokeColor=#FFFFFF;" parent="khXXdSDkWywSzuok3T_t-100" vertex="1">
          <mxGeometry y="25.71428571428571" width="210" height="68.57142857142857" as="geometry" />
        </mxCell>
        <mxCell id="khXXdSDkWywSzuok3T_t-103" value="" style="endArrow=none;html=1;rounded=0;strokeColor=#FFFFFF;" parent="khXXdSDkWywSzuok3T_t-100" edge="1">
          <mxGeometry width="50" height="50" relative="1" as="geometry">
            <mxPoint x="33.6" y="25.71428571428571" as="sourcePoint" />
            <mxPoint x="33.6" as="targetPoint" />
          </mxGeometry>
        </mxCell>
        <mxCell id="khXXdSDkWywSzuok3T_t-104" value="&lt;font color=&quot;#ffffff&quot;&gt;17&lt;/font&gt;" style="rounded=0;whiteSpace=wrap;html=1;fillColor=none;strokeColor=none;" parent="khXXdSDkWywSzuok3T_t-100" vertex="1">
          <mxGeometry x="8.4" y="8.571428571428571" width="25.2" height="17.142857142857142" as="geometry" />
        </mxCell>
        <mxCell id="khXXdSDkWywSzuok3T_t-106" value="" style="endArrow=classic;html=1;rounded=0;strokeColor=#FFFFFF;entryX=0;entryY=0.5;entryDx=0;entryDy=0;exitX=1;exitY=0.5;exitDx=0;exitDy=0;" parent="1" source="khXXdSDkWywSzuok3T_t-102" target="khXXdSDkWywSzuok3T_t-73" edge="1">
          <mxGeometry width="50" height="50" relative="1" as="geometry">
            <mxPoint x="388" y="3618" as="sourcePoint" />
            <mxPoint x="582" y="3618" as="targetPoint" />
            <Array as="points" />
          </mxGeometry>
        </mxCell>
        <mxCell id="khXXdSDkWywSzuok3T_t-107" value="create new student card" style="text;html=1;strokeColor=none;fillColor=none;align=center;verticalAlign=middle;whiteSpace=wrap;rounded=0;fontColor=#FFFFFF;" parent="1" vertex="1">
          <mxGeometry x="238" y="3399" width="98" height="27" as="geometry" />
        </mxCell>
        <mxCell id="khXXdSDkWywSzuok3T_t-108" value="create new student account&amp;nbsp;" style="text;html=1;strokeColor=none;fillColor=none;align=center;verticalAlign=middle;whiteSpace=wrap;rounded=0;fontColor=#FFFFFF;" parent="1" vertex="1">
          <mxGeometry x="320" y="3651" width="98" height="27" as="geometry" />
        </mxCell>
        <mxCell id="khXXdSDkWywSzuok3T_t-109" value="create new student card" style="text;html=1;strokeColor=none;fillColor=none;align=center;verticalAlign=middle;whiteSpace=wrap;rounded=0;fontColor=#FFFFFF;" parent="1" vertex="1">
          <mxGeometry x="385" y="3469" width="98" height="27" as="geometry" />
        </mxCell>
        <mxCell id="khXXdSDkWywSzuok3T_t-110" value="" style="endArrow=classic;html=1;rounded=0;strokeColor=#FFFFFF;" parent="1" edge="1">
          <mxGeometry width="50" height="50" relative="1" as="geometry">
            <mxPoint x="-85" y="3146" as="sourcePoint" />
            <mxPoint x="124" y="3844" as="targetPoint" />
            <Array as="points">
              <mxPoint x="-85" y="3844" />
            </Array>
          </mxGeometry>
        </mxCell>
        <mxCell id="khXXdSDkWywSzuok3T_t-111" value="" style="group" parent="1" vertex="1" connectable="0">
          <mxGeometry x="125" y="3782" width="210" height="120" as="geometry" />
        </mxCell>
        <mxCell id="khXXdSDkWywSzuok3T_t-112" value="" style="rounded=1;whiteSpace=wrap;html=1;fillColor=#693F01;strokeColor=#FFFFFF;" parent="khXXdSDkWywSzuok3T_t-111" vertex="1">
          <mxGeometry width="210" height="120" as="geometry" />
        </mxCell>
        <mxCell id="khXXdSDkWywSzuok3T_t-113" value="&lt;font color=&quot;#ffffff&quot;&gt;Edit student account&lt;/font&gt;" style="rounded=0;whiteSpace=wrap;html=1;fillColor=#000000;strokeColor=#FFFFFF;" parent="khXXdSDkWywSzuok3T_t-111" vertex="1">
          <mxGeometry y="25.71428571428571" width="210" height="68.57142857142857" as="geometry" />
        </mxCell>
        <mxCell id="khXXdSDkWywSzuok3T_t-114" value="" style="endArrow=none;html=1;rounded=0;strokeColor=#FFFFFF;" parent="khXXdSDkWywSzuok3T_t-111" edge="1">
          <mxGeometry width="50" height="50" relative="1" as="geometry">
            <mxPoint x="33.6" y="25.71428571428571" as="sourcePoint" />
            <mxPoint x="33.6" as="targetPoint" />
          </mxGeometry>
        </mxCell>
        <mxCell id="khXXdSDkWywSzuok3T_t-115" value="&lt;font color=&quot;#ffffff&quot;&gt;18&lt;/font&gt;" style="rounded=0;whiteSpace=wrap;html=1;fillColor=none;strokeColor=none;" parent="khXXdSDkWywSzuok3T_t-111" vertex="1">
          <mxGeometry x="8.4" y="8.571428571428571" width="25.2" height="17.142857142857142" as="geometry" />
        </mxCell>
        <mxCell id="khXXdSDkWywSzuok3T_t-116" value="" style="group" parent="1" vertex="1" connectable="0">
          <mxGeometry x="126" y="3937" width="210" height="120" as="geometry" />
        </mxCell>
        <mxCell id="khXXdSDkWywSzuok3T_t-117" value="" style="rounded=1;whiteSpace=wrap;html=1;fillColor=#693F01;strokeColor=#FFFFFF;" parent="khXXdSDkWywSzuok3T_t-116" vertex="1">
          <mxGeometry width="210" height="120" as="geometry" />
        </mxCell>
        <mxCell id="khXXdSDkWywSzuok3T_t-118" value="&lt;font color=&quot;#ffffff&quot;&gt;Edit student information&lt;/font&gt;" style="rounded=0;whiteSpace=wrap;html=1;fillColor=#000000;strokeColor=#FFFFFF;" parent="khXXdSDkWywSzuok3T_t-116" vertex="1">
          <mxGeometry y="25.71428571428571" width="210" height="68.57142857142857" as="geometry" />
        </mxCell>
        <mxCell id="khXXdSDkWywSzuok3T_t-119" value="" style="endArrow=none;html=1;rounded=0;strokeColor=#FFFFFF;" parent="khXXdSDkWywSzuok3T_t-116" edge="1">
          <mxGeometry width="50" height="50" relative="1" as="geometry">
            <mxPoint x="33.6" y="25.71428571428571" as="sourcePoint" />
            <mxPoint x="33.6" as="targetPoint" />
          </mxGeometry>
        </mxCell>
        <mxCell id="khXXdSDkWywSzuok3T_t-120" value="&lt;font color=&quot;#ffffff&quot;&gt;18&lt;/font&gt;" style="rounded=0;whiteSpace=wrap;html=1;fillColor=none;strokeColor=none;" parent="khXXdSDkWywSzuok3T_t-116" vertex="1">
          <mxGeometry x="8.4" y="8.571428571428571" width="25.2" height="17.142857142857142" as="geometry" />
        </mxCell>
        <mxCell id="khXXdSDkWywSzuok3T_t-121" value="" style="endArrow=classic;html=1;rounded=0;strokeColor=#FFFFFF;" parent="1" edge="1">
          <mxGeometry width="50" height="50" relative="1" as="geometry">
            <mxPoint x="-85" y="3299" as="sourcePoint" />
            <mxPoint x="124" y="3997" as="targetPoint" />
            <Array as="points">
              <mxPoint x="-85" y="3997" />
            </Array>
          </mxGeometry>
        </mxCell>
        <mxCell id="khXXdSDkWywSzuok3T_t-122" value="" style="group" parent="1" vertex="1" connectable="0">
          <mxGeometry x="457" y="3967" width="160" height="60" as="geometry" />
        </mxCell>
        <mxCell id="khXXdSDkWywSzuok3T_t-123" value="&lt;font color=&quot;#ffffff&quot;&gt;StudentList&lt;/font&gt;" style="rounded=0;whiteSpace=wrap;html=1;fillColor=#693F01;gradientColor=none;strokeColor=#FFFFFF;" parent="khXXdSDkWywSzuok3T_t-122" vertex="1">
          <mxGeometry x="40" width="120" height="60" as="geometry" />
        </mxCell>
        <mxCell id="khXXdSDkWywSzuok3T_t-124" value="&lt;font color=&quot;#ffffff&quot;&gt;D&lt;/font&gt;" style="rounded=0;whiteSpace=wrap;html=1;fillColor=#4D4D4D;strokeColor=#FFFFFF;" parent="khXXdSDkWywSzuok3T_t-122" vertex="1">
          <mxGeometry width="40" height="60" as="geometry" />
        </mxCell>
        <mxCell id="khXXdSDkWywSzuok3T_t-125" value="" style="endArrow=classic;html=1;rounded=0;strokeColor=#FFFFFF;entryX=0;entryY=0.5;entryDx=0;entryDy=0;exitX=1;exitY=0.5;exitDx=0;exitDy=0;" parent="1" source="khXXdSDkWywSzuok3T_t-118" target="khXXdSDkWywSzuok3T_t-124" edge="1">
          <mxGeometry width="50" height="50" relative="1" as="geometry">
            <mxPoint x="356" y="3919" as="sourcePoint" />
            <mxPoint x="534" y="3919" as="targetPoint" />
            <Array as="points" />
          </mxGeometry>
        </mxCell>
        <mxCell id="khXXdSDkWywSzuok3T_t-126" value="Edit student information" style="text;html=1;strokeColor=none;fillColor=none;align=center;verticalAlign=middle;whiteSpace=wrap;rounded=0;fontColor=#FFFFFF;" parent="1" vertex="1">
          <mxGeometry x="344.5" y="3967" width="98" height="27" as="geometry" />
        </mxCell>
        <mxCell id="khXXdSDkWywSzuok3T_t-127" value="" style="endArrow=classic;html=1;rounded=0;strokeColor=#FFFFFF;entryX=0.5;entryY=1;entryDx=0;entryDy=0;exitX=1;exitY=0.5;exitDx=0;exitDy=0;" parent="1" source="khXXdSDkWywSzuok3T_t-113" target="khXXdSDkWywSzuok3T_t-75" edge="1">
          <mxGeometry width="50" height="50" relative="1" as="geometry">
            <mxPoint x="376" y="3875" as="sourcePoint" />
            <mxPoint x="554" y="3875" as="targetPoint" />
            <Array as="points">
              <mxPoint x="562" y="3842" />
            </Array>
          </mxGeometry>
        </mxCell>
        <mxCell id="khXXdSDkWywSzuok3T_t-130" value="Edit student account" style="text;html=1;strokeColor=none;fillColor=none;align=center;verticalAlign=middle;whiteSpace=wrap;rounded=0;fontColor=#FFFFFF;" parent="1" vertex="1">
          <mxGeometry x="353" y="3811" width="98" height="27" as="geometry" />
        </mxCell>
        <mxCell id="khXXdSDkWywSzuok3T_t-132" value="" style="group" parent="1" vertex="1" connectable="0">
          <mxGeometry x="126" y="4096" width="210" height="120" as="geometry" />
        </mxCell>
        <mxCell id="khXXdSDkWywSzuok3T_t-133" value="" style="rounded=1;whiteSpace=wrap;html=1;fillColor=#693F01;strokeColor=#FFFFFF;" parent="khXXdSDkWywSzuok3T_t-132" vertex="1">
          <mxGeometry width="210" height="120" as="geometry" />
        </mxCell>
        <mxCell id="khXXdSDkWywSzuok3T_t-134" value="&lt;font color=&quot;#ffffff&quot;&gt;Edit student card&lt;/font&gt;" style="rounded=0;whiteSpace=wrap;html=1;fillColor=#000000;strokeColor=#FFFFFF;" parent="khXXdSDkWywSzuok3T_t-132" vertex="1">
          <mxGeometry y="25.71428571428571" width="210" height="68.57142857142857" as="geometry" />
        </mxCell>
        <mxCell id="khXXdSDkWywSzuok3T_t-135" value="" style="endArrow=none;html=1;rounded=0;strokeColor=#FFFFFF;" parent="khXXdSDkWywSzuok3T_t-132" edge="1">
          <mxGeometry width="50" height="50" relative="1" as="geometry">
            <mxPoint x="33.6" y="25.71428571428571" as="sourcePoint" />
            <mxPoint x="33.6" as="targetPoint" />
          </mxGeometry>
        </mxCell>
        <mxCell id="khXXdSDkWywSzuok3T_t-136" value="&lt;font color=&quot;#ffffff&quot;&gt;18&lt;/font&gt;" style="rounded=0;whiteSpace=wrap;html=1;fillColor=none;strokeColor=none;" parent="khXXdSDkWywSzuok3T_t-132" vertex="1">
          <mxGeometry x="8.4" y="8.571428571428571" width="25.2" height="17.142857142857142" as="geometry" />
        </mxCell>
        <mxCell id="khXXdSDkWywSzuok3T_t-137" value="" style="group" parent="1" vertex="1" connectable="0">
          <mxGeometry x="457" y="4126" width="160" height="60" as="geometry" />
        </mxCell>
        <mxCell id="khXXdSDkWywSzuok3T_t-138" value="&lt;font color=&quot;#ffffff&quot;&gt;StudentList&lt;/font&gt;" style="rounded=0;whiteSpace=wrap;html=1;fillColor=#693F01;gradientColor=none;strokeColor=#FFFFFF;" parent="khXXdSDkWywSzuok3T_t-137" vertex="1">
          <mxGeometry x="40" width="120" height="60" as="geometry" />
        </mxCell>
        <mxCell id="khXXdSDkWywSzuok3T_t-139" value="&lt;font color=&quot;#ffffff&quot;&gt;D&lt;/font&gt;" style="rounded=0;whiteSpace=wrap;html=1;fillColor=#4D4D4D;strokeColor=#FFFFFF;" parent="khXXdSDkWywSzuok3T_t-137" vertex="1">
          <mxGeometry width="40" height="60" as="geometry" />
        </mxCell>
        <mxCell id="khXXdSDkWywSzuok3T_t-140" value="" style="endArrow=classic;html=1;rounded=0;strokeColor=#FFFFFF;entryX=0;entryY=0.5;entryDx=0;entryDy=0;exitX=1;exitY=0.5;exitDx=0;exitDy=0;" parent="1" source="khXXdSDkWywSzuok3T_t-134" target="khXXdSDkWywSzuok3T_t-139" edge="1">
          <mxGeometry width="50" height="50" relative="1" as="geometry">
            <mxPoint x="348" y="4096" as="sourcePoint" />
            <mxPoint x="469" y="4096" as="targetPoint" />
            <Array as="points" />
          </mxGeometry>
        </mxCell>
        <mxCell id="khXXdSDkWywSzuok3T_t-141" value="Edit student card" style="text;html=1;strokeColor=none;fillColor=none;align=center;verticalAlign=middle;whiteSpace=wrap;rounded=0;fontColor=#FFFFFF;" parent="1" vertex="1">
          <mxGeometry x="346" y="4126" width="98" height="27" as="geometry" />
        </mxCell>
        <mxCell id="khXXdSDkWywSzuok3T_t-142" value="" style="endArrow=classic;html=1;rounded=0;strokeColor=#FFFFFF;" parent="1" edge="1">
          <mxGeometry width="50" height="50" relative="1" as="geometry">
            <mxPoint x="-84.5" y="3460" as="sourcePoint" />
            <mxPoint x="124.5" y="4158" as="targetPoint" />
            <Array as="points">
              <mxPoint x="-84.5" y="4158" />
            </Array>
          </mxGeometry>
        </mxCell>
        <mxCell id="khXXdSDkWywSzuok3T_t-143" value="Edit student information" style="text;html=1;strokeColor=none;fillColor=none;align=center;verticalAlign=middle;whiteSpace=wrap;rounded=0;fontColor=#FFFFFF;" parent="1" vertex="1">
          <mxGeometry x="-29" y="3967" width="98" height="27" as="geometry" />
        </mxCell>
        <mxCell id="khXXdSDkWywSzuok3T_t-144" value="Edit student account" style="text;html=1;strokeColor=none;fillColor=none;align=center;verticalAlign=middle;whiteSpace=wrap;rounded=0;fontColor=#FFFFFF;" parent="1" vertex="1">
          <mxGeometry x="-29" y="3816" width="98" height="27" as="geometry" />
        </mxCell>
        <mxCell id="khXXdSDkWywSzuok3T_t-145" value="Edit student card" style="text;html=1;strokeColor=none;fillColor=none;align=center;verticalAlign=middle;whiteSpace=wrap;rounded=0;fontColor=#FFFFFF;" parent="1" vertex="1">
          <mxGeometry x="-32" y="4129" width="98" height="27" as="geometry" />
        </mxCell>
      </root>
    </mxGraphModel>
  </diagram>
</mxfile>
